<?xml version="1.0" encoding="UTF-8"?>
<svg id="_レイヤー_2" data-name="レイヤー 2" xmlns="http://www.w3.org/2000/svg" viewBox="0 0 172.85 128.41">
  <defs>
    <style>
      .cls-1 {
        fill: #3e8acb;
      }

      .cls-2 {
        fill: #65bde6;
      }

      .cls-3 {
        fill: #fff;
      }

      .cls-4 {
        fill: #1a0b08;
      }

      .cls-5 {
        fill: #009bc0;
      }
    </style>
  </defs>
  <g id="data">
    <g>
      <path class="cls-3" d="M110.24,45.32l-21.31-2.39c-7.71,8.08-13.31,8.03-13.31,8.03-5.71-.55-14.04-4.11-26.22.24l.41-.24c-.36-3.9-8.68-3.06-11.18.27-3,4-2.87,7.31-2.82,7.89-7.79,6.79-12.03,15.59-11.95,21.75-1.28-2.75-5.29-4.01-11.08-3.19C2.37,79.14.12,93.8,2.14,102.38c1.95,8.29,5.9,11.61,13.76,13.94l.13-.54c3.32,4.29,9.12,6.88,20.74,7.5,5.82.31,17.08,3.27,21.04,3.48,28.65,1.53,51.96-4.19,54.67-44.99.56-8.52-.55-23.11-1.38-30.81l-.85-5.64Z"/>
      <path class="cls-2" d="M88.41,50.53c-.82-1.05-1.38-1.98-2.2-3.03-1.43-.51-3.34-.42-4.71.22-1.37.64-2.47,1.85-2.99,3.27.23,1.58.82,2.35,1.07,3.32.11.41.24.84.57,1.1.23.17.52.23.8.28,2.22.35,5.22-.17,6.94-3.01l.51-2.15Z"/>
      <path class="cls-2" d="M125.58,118.73c.24.03.62.06,1.12.07.32,0,.7-.17,1.12-.16.34,0,.71.08,1.12.08.35,0,.72-.04,1.12-.04.36,0,.73,0,1.12,0,.36,0,.74.11,1.12.1.36,0,.74,0,1.12,0,.36,0,.74-.07,1.12-.08.37,0,.74-.13,1.12-.14.37-.01.75.26,1.13.25.37-.01.74-.06,1.12-.08.37-.01.74-.05,1.12-.06.37-.01.73-.26,1.11-.27.37-.01.75.1,1.12.08.37-.01.74-.03,1.11-.05.37-.01.75.11,1.12.1.37-.02.74-.08,1.11-.1.37-.02.74-.19,1.11-.21.37-.02.76.19,1.13.17.37-.02.74-.3,1.11-.32.37-.02.75-.02,1.12-.04.37-.02.75-.02,1.12-.04.37-.02.75,0,1.12-.02.38-.02.75-.04,1.12-.06.38-.02.76.12,1.13.1.38-.02.74-.2,1.11-.22.38-.02.76.07,1.13.05.38-.02.75-.05,1.12-.07.38-.03.73-.28,1.1-.31.38-.03.77.24,1.14.21.38-.03.75-.16,1.11-.19.38-.03.76.02,1.13-.01.38-.03.75-.1,1.11-.13.38-.03.74-.24,1.1-.27.39-.04.77.09,1.13.05.39-.04.74-.32,1.09-.36.4-.05.78.04,1.12,0,.41-.06.77-.16,1.09-.22.46-.08.88.04,1.14-.04.31-.1.55-.44.88-.64.28-.17.52-.41.78-.68.23-.24.66-.35.86-.68.17-.28.24-.66.37-1.02.11-.31.07-.68.14-1.06.06-.32.15-.66.17-1.04.02-.33.1-.69.08-1.06,0-.16.02-.54.03-1.12,0-.32.08-.69.09-1.12,0-.34-.15-.72-.14-1.12,0-.35.09-.72.1-1.11,0-.36-.09-.73-.09-1.12,0-.36.08-.73.09-1.12,0-.36-.02-.74-.02-1.12,0-.36-.03-.74-.02-1.12,0-.37.16-.74.16-1.12,0-.37-.08-.74-.07-1.12,0-.37.15-.74.15-1.12,0-.37-.27-.74-.26-1.12,0-.37.09-.74.09-1.12,0-.37-.02-.74-.01-1.12,0-.37.02-.74.02-1.12,0-.37.1-.74.1-1.12,0-.37-.01-.74,0-1.12,0-.37,0-.75,0-1.12,0-.37.05-.75.06-1.12,0-.37.07-.75.07-1.12,0-.38-.23-.75-.23-1.13,0-.38.13-.75.13-1.12,0-.38-.05-.75-.05-1.13,0-.38-.03-.75-.03-1.13,0-.38-.05-.75-.05-1.12,0-.38.2-.75.2-1.12,0-.38-.07-.75-.07-1.12,0-.38.05-.75.05-1.12,0-.38.09-.75.09-1.12,0-.38-.07-.75-.08-1.12,0-.38,0-.75,0-1.12,0-.38-.03-.76-.04-1.12,0-.38-.05-.75-.06-1.12,0-.38-.06-.76-.07-1.12,0-.36.12-.71.09-1.04-.03-.36-.08-.7-.13-1.02-.05-.36-.19-.69-.25-1-.08-.37-.09-.72-.18-1.02-.11-.38-.35-.66-.45-.93-.19-.49-.32-.81-.34-.95-.03-.21-.14-.63-.51-1.02-.22-.23-.65-.32-.96-.6-.25-.22-.43-.58-.74-.83-.27-.22-.64-.35-.94-.59-.28-.22-.56-.45-.87-.68-.29-.21-.52-.52-.83-.74-.29-.21-.7-.27-1.01-.49-.3-.21-.47-.61-.78-.82-.3-.2-.62-.39-.93-.6-.3-.2-.69-.29-1-.49-.31-.2-.59-.44-.9-.64-.31-.2-.65-.36-.96-.56-.31-.2-.69-.29-1.01-.48-.31-.2-.52-.57-.84-.76-.32-.19-.61-.43-.93-.62-.32-.19-.78-.13-1.1-.32-.32-.19-.61-.43-.92-.62-.32-.19-.64-.38-.96-.55-.33-.18-.66-.35-.98-.53-.33-.18-.61-.45-.93-.62-.34-.18-.68-.31-1-.47-.34-.17-.63-.42-.95-.58-.35-.17-.76-.16-1.09-.3-.36-.16-.71-.26-1.03-.38-.38-.15-.63-.55-.95-.64-.43-.13-.83-.1-1.11-.1-.25,0-.62-.11-1.09-.1-.32,0-.68.28-1.09.28-.34,0-.7-.24-1.09-.23-.34,0-.7.23-1.09.24-.35,0-.71-.11-1.09-.1-.35,0-.72-.1-1.09-.09-.35,0-.71.22-1.09.23-.36.01-.72.08-1.09.1-.36.01-.73-.15-1.1-.14-.36.01-.73-.1-1.1-.09-.36.01-.72.05-1.09.06-.36.01-.72.15-1.08.17-.36.01-.73-.12-1.09-.1-.36.01-.72.21-1.08.22-.36.01-.73.07-1.09.08-.36.01-.73.04-1.09.06-.36.01-.73.07-1.09.09-.37.01-.73.03-1.09.04-.37.01-.73.03-1.09.04-.37.01-.74-.21-1.1-.19-.37.01-.73.11-1.09.13-.37.01-.73.2-1.09.22-.37.02-.74-.25-1.1-.23-.37.02-.73.25-1.08.26-.37.02-.75-.14-1.1-.12-.37.02-.74.11-1.09.13-.38.02-.73.2-1.09.22-.38.02-.76-.3-1.11-.28-.38.02-.74.2-1.08.22-.39.02-.77-.09-1.1-.07-.42.02-.79.05-1.09.07-.61.04-1.14.18-1.23.21,0,.37.24.78.24,1.15,0,.37-.13.74-.11,1.12.01.37.08.74.09,1.12.02.37.1.74.12,1.11.02.37.09.73.11,1.11.02.37-.21.76-.18,1.13.02.37.27.73.29,1.1.02.37-.1.75-.08,1.13.02.37.05.75.07,1.12.02.37.06.74.09,1.12.02.37.16.74.18,1.11.02.37-.05.75-.03,1.12.02.38-.06.75-.05,1.12.01.38,0,.75,0,1.12,0,.38.15.75.15,1.12,0,.38-.01.75-.02,1.12,0,.38.02.75,0,1.12-.01.38-.1.75-.13,1.11-.02.38.08.76.04,1.12-.03.34-.19.7-.22,1.09-.03.35.05.73.02,1.11-.02.36-.02.73-.04,1.11-.02.36-.19.72-.21,1.1-.02.36.18.74.17,1.12-.02.36-.1.73-.12,1.11-.02.36-.08.73-.1,1.11-.02.36.07.74.05,1.11-.02.37-.02.74-.04,1.11-.02.37-.02.74-.04,1.11-.02.37-.05.74-.08,1.11-.02.37-.04.74-.07,1.11-.03.37-.28.72-.31,1.09-.03.37.12.76.09,1.13-.03.37-.18.73-.22,1.1-.04.37-.13.73-.17,1.1-.04.37-.06.74-.11,1.11-.05.37.08.77.02,1.13-.06.37-.2.73-.27,1.09-.06.37-.06.75-.13,1.11-.07.37-.33.7-.41,1.06-.08.37-.16.73-.25,1.08-.09.36-.21.71-.31,1.07-.1.36-.09.75-.21,1.1-.12.36-.2.73-.33,1.07-.14.35-.3.69-.45,1.02-.16.35-.37.66-.54.98-.18.33-.27.72-.47,1.02-.21.32-.42.53-.65.81.28.16.44.44.77.66.28.19.53.46.84.68.28.2.72.21,1.02.44.28.21.46.57.76.79.28.22.62.37.91.6.28.22.65.34.93.57.28.22.45.58.74.82.28.23.57.44.85.68.28.23.46.57.74.8.28.23.73.26,1.01.49.28.23.41.65.69.88.28.23.7.3.98.53.28.23.56.47.84.7.29.23.48.57.76.8.29.23.56.48.84.7.29.23.56.48.83.7.3.23.74.25,1.01.46.3.23.46.63.74.83.31.22.57.49.85.68.34.22.81.15,1.08.3.41.22.68.5.93.53Z"/>
      <path class="cls-5" d="M130.95,69.78c-.37,0-.7-.07-.97-.13-.17-.04-.33-.07-.49-.06-.16,0-.32,0-.47,0-.28,0-.54.01-.78,0-.26-.01-.49,0-.68.02-.38.02-.74.05-1.12-.12l-.14-.06c-.19-.08-.39-.17-.6-.29-.19-.11-.35-.25-.46-.36-.03-.03-.07-.07-.11-.09-.24-.15-.41-.34-.51-.47-.05-.05-.12-.09-.19-.13-.14-.08-.28-.16-.41-.25h-.05c-.15-.07-.38-.16-.61-.33-.25-.18-.39-.4-.49-.54h0s-.04-.02-.05-.02c-.16-.07-.32-.15-.46-.24-.22-.14-.37-.31-.48-.42,0,0,0,0-.01-.01-.24-.06-.51-.15-.77-.36-.07-.06-.15-.11-.23-.17-.1-.06-.19-.13-.28-.2l-.54-.42c-.26-.2-.41-.43-.51-.58,0-.01-.01-.02-.01-.02-.09-.07-.19-.13-.28-.2l-.17-.12c-.14-.1-.27-.21-.4-.33,0,0-.02-.02-.03-.02-.25-.04-.54-.12-.82-.33-.22-.17-.37-.36-.46-.48-.17-.16-.31-.3-.44-.46-.03-.03-.06-.07-.09-.1-.04-.03-.09-.06-.14-.09-.14-.08-.27-.16-.39-.26-.05-.04-.1-.06-.15-.09-.14-.08-.29-.17-.41-.27-.24-.18-.38-.4-.48-.56-.19-.07-.37-.16-.56-.29l-.11-.08c-.16-.12-.31-.23-.45-.35-.19-.15-.33-.31-.42-.43l-.07-.09c-.09-.07-.19-.16-.28-.24l-.21-.18c-.16-.02-.43-.09-.68-.31-.07-.06-.13-.11-.19-.18-.06-.06-.14-.13-.28-.25-.51-.42-.59-1.18-.17-1.69.42-.51,1.17-.59,1.69-.17.18.15.3.25.38.34.21.06.48.17.76.4.09.07.18.15.27.23.08.07.16.14.25.21.14.11.26.25.39.4.03.03.05.07.09.1.12.09.25.2.39.3l.05.04c.23.09.46.18.7.36.26.21.41.45.5.6.02.01.04.03.07.04.15.09.3.18.43.28.04.03.09.06.14.09.16.1.32.2.47.32.13.11.24.23.35.36.03.04.06.07.09.1.16.12.29.27.38.39.24.05.5.12.76.32.11.08.21.17.3.26.06.05.11.11.18.15l.16.11c.15.1.29.2.43.31.26.2.41.43.5.58,0,.01.01.02.02.03l.46.35c.06.05.13.09.2.14.09.06.18.13.27.19.23.06.48.14.73.32.15.11.28.24.41.37.03.03.05.06.08.08h0s.05.02.09.04c.18.08.36.17.52.29.25.18.41.41.51.55h0c.14.06.33.13.53.26.08.06.17.11.26.16.1.06.2.11.29.17.26.16.43.36.54.49.02.02.02.03.03.03.14.1.27.21.39.32l.08.08c.07.04.17.08.26.11h.03s.09,0,.15,0c.27-.02.59-.04.97-.02.18,0,.38,0,.59,0,.21,0,.44,0,.68,0,.31,0,.59.06.83.12.18.04.35.03.47.07.17,0,.35-.02.53-.04.26-.03.52-.05.79-.06.24,0,.49.01.74.03.19.01.39.03.58.03.23,0,.46,0,.69,0,.21,0,.42.01.64,0,.18,0,.37-.03.55-.05.26-.03.51-.07.77-.07.27-.01.54.01.8.03.18.01.36.03.53.03.22,0,.44-.01.67-.02.22,0,.45,0,.67-.02.21,0,.43-.02.64-.04.23-.02.46-.03.69-.04.2,0,.4-.03.59-.06.25-.03.49-.06.74-.07.19,0,.37-.04.55-.07.26-.04.52-.08.78-.1.27-.01.53,0,.79,0,.19,0,.37.01.54,0,.19,0,.37-.05.55-.08.27-.05.52-.1.77-.11.27-.01.53-.02.77-.03.2,0,.39,0,.56-.02.62-.04.92.04,1.2.13.08.02.12.03.18.02.22,0,.39-.02.56-.04.26-.03.54-.06.81-.05.2,0,.4,0,.61.01.22,0,.45.02.68.01.1,0,.26-.04.43-.07.26-.06.55-.12.88-.13.26,0,.52.01.78.03.18.02.36.04.54.03.21,0,.42-.03.64-.05.23-.02.45-.05.68-.06l1.33-.07c.18-.01.37-.04.55-.08.26-.04.51-.09.77-.1.25-.02.5-.01.75-.02.19,0,.39,0,.58-.01l.65-.04c.23-.01.45-.03.67-.04.24-.02.47-.04.7-.07.21-.02.42-.04.62-.06l1.32-.12c.25-.02.47-.06.68-.09.22-.04.43-.07.62-.09.53-.05.79-.03,1.03,0,.09.01.12.02.3,0,.68-.08,1.25.41,1.32,1.07.07.66-.41,1.25-1.07,1.32-.43.04-.65.02-.87,0-.1-.01-.18-.03-.48,0-.14.01-.29.04-.46.07-.27.04-.55.09-.86.12l-1.33.12c-.18.01-.37.04-.57.06-.25.03-.5.05-.76.07-.23.02-.47.03-.71.05l-.62.04c-.25.02-.49.02-.76.02-.19,0-.38,0-.58.01-.17.01-.35.04-.52.07-.27.05-.54.09-.81.11l-1.34.07c-.19.01-.38.03-.56.05-.26.03-.52.05-.77.06-.28.01-.56,0-.85-.03-.17-.01-.33-.03-.5-.03-.14,0-.29.04-.44.08-.26.06-.56.12-.9.13-.27,0-.54,0-.81-.01-.18,0-.36,0-.54-.01-.18,0-.36.02-.53.04-.28.03-.56.06-.83.05-.44.02-.68-.06-.91-.14-.07-.02-.1-.04-.33-.02-.19.01-.4.02-.63.02-.22,0-.46.01-.71.02-.14,0-.29.04-.44.07-.28.05-.58.11-.89.12-.24.01-.48,0-.73,0-.2,0-.4-.01-.61,0-.16,0-.33.04-.5.07-.27.05-.55.09-.83.1-.18,0-.37.03-.56.05-.26.03-.51.06-.77.07-.21,0-.41.02-.62.04-.24.02-.48.04-.72.04-.24,0-.48.01-.72.02-.21,0-.42,0-.63.02-.27.01-.54,0-.82-.03-.17-.01-.35-.03-.52-.03-.18,0-.37.03-.55.06-.26.03-.53.07-.79.07-.25,0-.51,0-.77,0-.19,0-.38-.01-.57,0-.28,0-.55-.01-.82-.03-.18-.01-.36-.04-.52-.03-.2,0-.39.02-.57.04-.27.03-.57.06-.79.06ZM127.4,67.29l.04.02s-.03-.01-.04-.02ZM119.59,64.57s0,0,0,0c0,0,0,0,0,0ZM122.61,64.03s0,0,0,0c0,0,0,0,0,0ZM121.49,63.21h0s0,0,0,0ZM115.39,61.26h0,0ZM117.2,59.87s0,0,0,0t0,0ZM116.16,59h0,0Z"/>
      <path class="cls-5" d="M148.26,68.83c-.21,0-.41-.07-.59-.21-.09-.07-.13-.1-.18-.12-.12-.06-.25-.13-.56-.38-.12-.1-.24-.22-.37-.35-.09-.09-.18-.19-.29-.28-.09-.07-.19-.14-.29-.21-.14-.1-.3-.21-.45-.33-.15-.12-.29-.27-.42-.42-.07-.08-.13-.16-.22-.23-.12-.09-.23-.19-.35-.29-.11-.1-.23-.19-.35-.29-.03-.03-.14-.08-.21-.12-.17-.08-.38-.18-.58-.34-.21-.17-.36-.37-.47-.52-.04-.06-.11-.15-.14-.18-.08-.07-.18-.12-.27-.18-.17-.1-.33-.2-.49-.32l-.71-.56s-.14-.08-.22-.12c-.17-.08-.37-.18-.58-.34-.13-.1-.25-.2-.37-.31-.11-.09-.21-.18-.32-.27-.25-.19-.4-.43-.51-.6-.03-.05-.06-.11-.1-.15,0,.02-.05,0-.11-.01-.2-.06-.47-.15-.73-.34-.25-.19-.4-.43-.51-.6-.03-.05-.06-.11-.1-.15.02.02-.04.01-.1,0-.21-.06-.49-.14-.75-.34l-.72-.55c-.16-.12-.3-.27-.45-.42-.07-.08-.14-.15-.22-.21-.11-.09-.23-.17-.35-.25-.13-.09-.26-.19-.39-.28-.2-.15-.35-.32-.47-.46-.07-.08-.14-.16-.18-.19l-.72-.55c-.08-.06-.17-.1-.25-.14-.19-.09-.38-.19-.54-.31-.08-.06-.17-.1-.26-.15-.18-.09-.36-.19-.52-.31-.21-.16-.37-.34-.49-.49-.05-.06-.12-.15-.15-.17l-.73-.53c-.1-.07-.21-.13-.32-.2-.15-.09-.3-.18-.44-.28l-.73-.54c-.42-.3-.52-.88-.22-1.3.3-.42.88-.52,1.3-.22l.74.54c.1.07.2.13.3.19.16.09.32.19.46.3l.74.53c.21.16.37.34.49.49.05.06.12.15.15.17.08.06.17.1.26.14.19.09.37.19.54.32.07.05.16.09.25.13.19.09.38.19.55.32.14.1.28.21.41.32l.31.24c.2.15.35.32.47.46.06.08.14.16.18.19.12.09.23.17.35.25.13.09.26.19.39.28.16.12.31.27.45.42.07.07.14.15.22.21l.73.55s.07.01.13.03c.21.06.49.14.75.34.25.19.4.43.51.6.03.05.06.11.1.15,0-.02.06,0,.11.01.2.06.47.15.73.34.25.2.41.44.52.61.03.05.06.1.1.15.11.08.24.19.37.31.1.09.2.17.3.25.04.03.14.08.23.12.16.08.37.18.57.33l.7.55c.1.08.21.14.3.2.17.1.33.2.48.31.23.18.37.38.49.54.04.06.08.12.13.16.04.03.14.08.23.12.16.08.37.18.56.33.14.11.27.22.4.33.1.09.2.17.3.25.17.14.32.3.46.46.06.07.11.14.18.19.12.09.24.18.35.26.14.1.27.19.39.29.18.15.34.3.48.45.06.07.12.13.18.18.16.13.23.17.29.2.11.06.22.12.46.31.4.33.46.91.14,1.31-.18.23-.45.35-.73.35Z"/>
      <path class="cls-1" d="M77.9,41.72c-.29-.12-.47-.39-.69-.52-.29-.17-.54-.27-.71-.43-.27-.27-.45-.48-.4-.7.05-.23.23-.51.58-.66.22-.09.52-.14.85-.19.25-.04.55.09.86.08.26,0,.54-.01.85,0,.27.02.55,0,.85.04.31.04.64-.1.93-.07.31.03.59.31.89.34.31.03.62.03.92.06.31.03.63-.1.93-.07.31.03.61.17.91.2.31.03.63-.08.93-.05.32.03.62.09.91.12.32.03.62,0,.92.04.32.03.59.34.88.37.33.04.62-.07.86-.07.33,0,.65.05.88-.07.22-.11.3-.45.51-.71.15-.19.34-.38.51-.66.13-.21.38-.39.54-.66.13-.22.15-.53.31-.8.13-.23.34-.43.49-.69.15-.25.24-.56.42-.81.17-.24.42-.43.62-.66.19-.22.36-.48.58-.7.2-.21.48-.36.71-.56.22-.2.46-.38.7-.57.23-.19.38-.48.63-.66.24-.18.48-.37.73-.53.25-.16.62-.12.89-.27.26-.15.42-.5.69-.63.27-.13.59-.17.87-.28.28-.11.59-.12.88-.21.29-.09.54-.32.83-.39.29-.06.62.06.92.02.3-.04.58-.19.89-.21.3-.01.6.04.91.05.3.01.59.12.89.16.3.04.63-.11.93-.04.29.07.52.36.81.46.29.1.65,0,.92.12.29.11.55.27.82.4.28.13.5.37.76.51.27.15.55.26.8.43.25.17.56.27.8.45.24.19.35.53.57.74.23.21.51.35.71.56.21.22.37.48.56.71.19.24.29.53.46.78.17.25.47.41.62.67.15.26.35.51.48.78.13.27.1.62.22.9.12.28.25.55.34.84.1.29.18.57.26.87.08.29.31.55.37.85.06.3.1.6.14.9.04.3.02.61.04.91.02.3-.09.61-.09.91,0,.3.16.61.15.91-.01.3-.19.59-.22.89-.03.3-.11.59-.16.89-.05.3.06.63,0,.92-.07.3-.1.6-.18.89-.11.39-.37.64-.5.87-.23.39-.37.75-.61.83-.36.13-.77-.08-1.03-.14-.29-.07-.55-.29-.85-.36-.29-.06-.64.1-.93.04-.29-.06-.58-.15-.88-.21-.29-.06-.57-.2-.87-.26-.3-.06-.58-.19-.87-.25-.3-.06-.59-.13-.89-.19-.3-.06-.61-.05-.9-.11-.3-.06-.59-.13-.89-.19-.3-.06-.58-.21-.87-.27-.3-.06-.64.12-.94.06-.3-.06-.59-.13-.89-.18-.3-.06-.59-.12-.89-.18-.3-.06-.58-.21-.88-.27-.3-.06-.6-.12-.89-.18-.3-.06-.58-.19-.88-.24-.3-.06-.61-.05-.91-.11-.3-.06-.62,0-.92-.06-.3-.06-.56-.32-.86-.38-.3-.06-.59-.13-.89-.19-.3-.06-.63.05-.93,0-.3-.06-.58-.23-.87-.28-.3-.06-.63.04-.92-.02-.3-.06-.61-.04-.91-.1-.3-.06-.59-.16-.89-.22-.3-.06-.59-.14-.89-.2-.3-.06-.6-.13-.89-.18-.3-.06-.59-.14-.89-.2-.3-.06-.58-.21-.87-.27-.3-.06-.62,0-.92-.05-.3-.06-.57-.28-.86-.34-.3-.06-.64.07-.93,0-.3-.07-.55-.37-.84-.43-.3-.07-.59-.15-.88-.22-.3-.07-.62-.05-.9-.12-.3-.08-.61-.08-.9-.16-.3-.08-.61-.1-.89-.18-.3-.09-.54-.36-.81-.45-.3-.1-.65,0-.92-.1-.31-.11-.56-.29-.81-.4Z"/>
      <path class="cls-2" d="M108.67,46.93c.21-.19.42-.39.63-.62.2-.21.38-.44.57-.67.18-.22.38-.44.56-.68.17-.23.33-.48.5-.73.16-.24.32-.49.48-.74.15-.25.29-.51.43-.77.14-.26.26-.53.39-.8.13-.26.26-.53.38-.8.11-.27.2-.55.31-.83.1-.28.21-.55.3-.83.09-.28.17-.57.24-.85.07-.29.16-.57.21-.86.05-.28.09-.56.12-.84-.13-.26-.31-.49-.46-.75-.15-.26-.45-.42-.62-.67-.17-.24-.27-.53-.45-.77-.1.23-.2.46-.31.68-.13.27-.29.53-.43.8-.15.27-.29.53-.45.79-.16.26-.33.51-.5.76-.17.25-.34.5-.52.75-.18.24-.37.48-.57.71-.19.23-.39.47-.59.69-.2.23-.41.45-.61.67-.21.22-.43.43-.64.64-.22.21-.44.42-.66.62-.22.21-.45.41-.67.61-.23.2-.46.4-.69.6-.24.2-.49.37-.72.55-.24.19-.48.38-.72.55-.25.18-.49.36-.73.54-.25.18-.49.37-.73.54-.26.18-.51.34-.76.5-.26.17-.52.34-.76.5-.27.17-.53.32-.77.47,0,0-.01,0-.02.01.18.04.36.07.55.11.3.06.58.21.88.27.3.06.59.12.89.18.3.06.59.13.89.18.3.06.64-.12.94-.06.3.06.58.21.87.27.3.06.59.13.89.19.3.06.61.05.9.11,0,0,0,0,.01,0,.24-.12.49-.28.74-.46.22-.16.46-.34.69-.55Z"/>
      <path class="cls-4" d="M113.92,77.86c.02-.2.04-.4.04-.61,0-.12,0-.24.02-.36.01-.19.02-.37.02-.56,0-.09.01-.18.03-.27.03-.21.05-.43.05-.64,0-.23-.04-.47-.08-.71-.01-.07-.03-.14-.04-.22,0-.22-.04-.44-.07-.66-.01-.08-.03-.16-.04-.16,0-.04.02-.09.04-.13.06-.2.15-.51.14-.88,0-.22-.04-.43-.07-.65-.01-.09-.03-.18-.04-.25,0-.06.02-.12.03-.18.04-.19.09-.46.08-.76-.01-.36-.11-.64-.18-.85-.02-.05-.04-.09-.04-.06,0-.07.01-.15.02-.22.03-.23.05-.47.05-.7,0-.19-.03-.37-.05-.56-.01-.12-.03-.24-.03-.36-.01-.23-.05-.46-.11-.69-.02-.07-.04-.15-.04-.22,0-.13,0-.26-.01-.39,0-.17,0-.35-.02-.52,0-.07.01-.14.02-.21.03-.24.05-.48.04-.71-.01-.23-.06-.46-.11-.69-.02-.07-.04-.14-.04-.22,0-.13,0-.26-.01-.38,0-.18,0-.35-.02-.53-.01-.18-.04-.37-.06-.55-.01-.08-.02-.17-.03-.25l.02-.06c.07-.22.18-.56.15-.97-.01-.2-.04-.39-.08-.58-.02-.11-.04-.21-.05-.32-.02-.28-.09-.52-.14-.71-.02-.06-.04-.13-.05-.16,0-.05.01-.11.02-.17.03-.2.08-.47.05-.78-.03-.35-.14-.64-.21-.84-.02-.04-.03-.09-.04-.05,0-.06.01-.11.02-.17.03-.19.06-.46.04-.75-.02-.19-.05-.38-.08-.57-.02-.11-.04-.22-.05-.34-.02-.22-.06-.44-.11-.65-.02-.08-.04-.17-.05-.23,0-.06.01-.12.02-.18.03-.19.06-.46.03-.76l-.09-.91c-.03-.35-.14-.63-.23-.83-.02-.04-.04-.09-.04-.06,0,0-.78-3.14-1.55-3.07-.75.08-1.3.74-1.22,1.49,0,.05-.01.1-.02.16-.03.2-.06.48-.03.79l.08.9c.03.34.14.61.22.8.02.05.04.09.04.08l.09.87c0,.06-.01.11-.02.17-.03.2-.06.46-.04.77.02.21.06.42.11.63.02.09.05.17.05.26.02.18.04.36.07.55.02.12.04.23.05.33,0,.06-.01.12-.02.17-.03.19-.06.45-.04.75.03.35.13.62.21.82.01.03.02.05.03.08,0,.04-.01.07-.02.11-.03.2-.08.47-.05.78.02.28.08.51.14.7.02.07.04.13.05.19.01.19.04.38.08.58.01.07.02.14.03.22l-.02.05c-.07.22-.18.56-.15.97.01.18.04.35.06.53.02.12.03.24.04.36,0,.13,0,.26.01.39,0,.17,0,.34.02.5.01.23.06.46.11.68.02.07.04.14.04.21,0,.07-.01.14-.02.21-.03.23-.05.47-.04.7,0,.15.01.29.01.44,0,.16,0,.31.01.47.01.23.05.45.11.68.02.07.04.15.04.22,0,.18.03.35.05.53.01.12.03.25.03.37,0,.08-.01.15-.02.22-.03.23-.05.46-.05.69.01.35.11.64.18.84.02.04.03.08.03.05,0,.06-.02.11-.03.17-.04.19-.08.45-.08.75,0,.21.04.43.07.64.01.09.03.17.04.17,0,.05-.02.09-.04.14-.06.2-.14.5-.14.86,0,.22.04.44.08.66.01.08.03.16.03.24,0,.23.04.46.09.7.01.07.03.14.03.2,0,.1-.02.19-.03.28-.03.21-.05.41-.05.62,0,.13,0,.26-.02.39-.01.17-.02.35-.02.52,0,.11-.01.22-.03.34-.02.19-.04.37-.04.56v.9c-.02.33.04.6.09.8.01.05.02.09.03.09,0,0,0,0,0,0,0,.16,0,.33,0,.49,0,.14,0,.27,0,.4,0,.14-.02.28-.04.42-.02.15-.03.31-.04.46,0,.08-.03.15-.05.22-.05.22-.1.44-.12.66,0,.09-.03.18-.05.27-.04.21-.08.41-.1.61-.02.19-.02.39-.01.59,0,.1,0,.21,0,.31l-.1.89c-.01.11-.04.22-.06.33-.04.18-.07.37-.09.55-.05.4.04.74.1.96,0,0,0,.02-.01.03-.08.19-.19.46-.24.79-.01.1-.04.2-.07.3-.05.19-.09.38-.12.57-.05.38.01.71.06.93,0,0,0,.01,0,.02-.09.19-.23.47-.29.82-.03.17-.06.34-.09.51l-.07.37c-.04.21-.05.43-.06.64,0,.08,0,.17-.01.25-.02.08-.05.17-.08.25-.07.2-.14.4-.18.61-.07.33-.05.62-.03.83,0,.02,0,.04,0,.06,0,.02-.02.03-.03.05-.11.19-.25.44-.33.78-.04.16-.07.31-.1.47-.03.13-.05.27-.08.4-.08.34-.07.65-.06.86,0,0,0,0,0,.01-.13.18-.33.46-.43.83-.08.29-.09.54-.11.74,0,.06,0,.12,0,.15-.03.09-.07.17-.11.26-.08.18-.16.37-.22.56-.07.22-.1.45-.13.69,0,.07-.01.13-.03.19-.04.12-.09.23-.14.34-.07.16-.13.31-.17.44-.03.05-.06.09-.09.14-.11.16-.25.38-.36.67-.14.38-.13.72-.13.94v.04s-.05.07-.07.11c-.12.19-.23.38-.31.59l-.08.2c-.08.21-.17.41-.25.61-.05.1-.1.2-.16.29-.09.16-.18.31-.25.48-.07.16-.14.33-.2.5-.04.11-.08.21-.12.31-.03.06-.08.11-.12.16-.14.19-.28.37-.38.58-.1.2-.18.43-.25.65-.02.06-.03.13-.06.18-.08.15-.15.3-.22.45-.05.11-.1.23-.16.33-.05.09-.12.17-.18.26-.11.15-.22.3-.32.46-.09.15-.17.31-.25.47-.05.1-.1.2-.14.27-.04.04-.08.08-.12.12-.14.13-.32.31-.48.55-.21.32-.3.64-.35.85l-.02.06c-.05.06-.1.11-.15.17-.12.14-.25.27-.36.42-.11.14-.2.29-.29.44-.06.1-.12.19-.19.28-.07.09-.16.17-.24.26-.12.12-.24.25-.29.31-.04.03-.08.05-.12.08-.18.11-.42.27-.65.52-.14.16-.26.33-.38.51-.04.07-.08.14-.13.19-.14.15-.27.32-.39.49-.05.07-.09.14-.15.2-.2.21-.41.41-.61.61-.06.06-.14.1-.21.15-.17.12-.34.24-.49.37l-.14.13c-.17.15-.33.3-.49.44-.05.04-.11.06-.17.09-.2.11-.4.23-.58.37-.23.18-.39.38-.51.53-.04.04-.07.09-.09.11-.12.09-.24.19-.36.29-.1.09-.21.17-.31.25-.07.05-.15.08-.22.12-.19.09-.37.19-.54.3-.12.08-.25.17-.37.26-.11.08-.22.16-.34.24-.26.16-.44.35-.58.49-.02.02-.04.04-.06.06-.02,0-.03,0-.05,0-.2.04-.51.11-.82.28-.12.07-.24.12-.37.18-.14.07-.27.13-.41.2-.14.07-.28.14-.42.2l-.36.17c-.3.15-.51.34-.67.47-.02.01-.03.03-.05.04-.02,0-.04,0-.06,0-.21.03-.49.07-.8.2-.21.09-.4.21-.59.33-.06.04-.11.08-.16.11l-.35.15c-.15.06-.3.13-.45.19-.17.07-.34.15-.51.23-.09.05-.19.1-.26.12-.05.01-.11.01-.16.02-.19.02-.45.04-.73.14-.15.05-.29.1-.44.16-.13.05-.25.1-.38.14-.18.06-.36.13-.53.2-.09.04-.19.08-.29.11-.22.06-.43.16-.64.26-.04.02-.08.04-.12.06-.02,0-.04,0-.06,0-.21-.01-.53-.04-.89.05-.34.08-.59.23-.78.34-.04.02-.08.05-.03.04-.1.02-.21.03-.32.04-.19.02-.37.05-.54.08-.06,0-.13,0-.19,0h0c-.24,0-.47,0-.7.05-.27.05-.5.15-.67.21-.06.02-.12.05-.17.06-.18.03-.36.08-.54.13-.1.03-.21.06-.32.08-.11.02-.22.02-.33.03-.18.01-.36.02-.54.05-.14.02-.29.04-.43.05-.15.02-.3.03-.45.05-.15.02-.31.05-.46.07-.14.02-.28.05-.41.06-.13.01-.26.02-.38.03-.17,0-.33.02-.5.04-.21.02-.41.07-.61.12-.09.02-.17.05-.26.05-.11.01-.22,0-.33,0-.19,0-.37,0-.55.01-.15.01-.3.03-.44.04-.15.01-.29.03-.44.04-.12,0-.25,0-.37,0-.18,0-.34,0-.52,0-.2.01-.4.04-.6.08-.09.02-.19.04-.2.04-.04,0-.09-.02-.13-.03-.2-.05-.49-.13-.85-.11-.31.01-.57.08-.75.14-.05.01-.11.03-.13.04l-.88.02c-.09-.01-.16-.02-.24-.03-.22-.03-.46-.05-.65-.05h-.89c-.21,0-.42.03-.64.06-.09.01-.21.05-.25.03-.11,0-.22-.01-.33-.02-.19-.02-.37-.03-.56-.04l-.89-.02c-.11,0-.21-.02-.32-.03-.19-.02-.38-.04-.57-.05-.32,0-.61.06-.81.11-.05.01-.1.03-.08.03-.14,0-.27-.01-.41-.02-.16-.01-.33-.02-.39-.02-.04-.01-.09-.03-.13-.04-.2-.07-.49-.18-.86-.2-.33,0-.6.05-.81.09-.05.01-.1.02-.1.03-.08,0-.16-.03-.24-.04-.22-.04-.43-.08-.66-.1-.17,0-.35,0-.54.02-.08,0-.17.02-.27,0l-.36-.03c-.16-.01-.32-.03-.46-.05-.05-.01-.11-.04-.16-.06-.17-.06-.41-.15-.7-.2l-.34-.05c-.17-.03-.34-.05-.52-.08l-.86-.16c-.09-.02-.18-.05-.27-.08-.19-.06-.39-.12-.59-.16-.29-.06-.56-.04-.75-.04-.05,0-.1,0-.15,0-.21-.04-.42-.06-.63-.07-.05,0-.1,0-.15,0l-.03-.02c-.2-.13-.49-.33-.91-.41l-.86-.18c-.16-.03-.32-.06-.48-.09l-.39-.07c-.17-.03-.34-.06-.51-.08-.12-.02-.25-.04-.37-.06-.29-.06-.55-.05-.73-.05-.06,0-.12,0-.17,0-.09-.02-.18-.05-.27-.08-.2-.06-.39-.12-.59-.16-.06-.02-.12-.04-.18-.07-.18-.07-.41-.16-.68-.21-.36-.07-.67-.03-.88,0-.04,0-.09.01-.04.02-.1-.02-.2-.05-.3-.08-.19-.06-.38-.11-.58-.14-.21-.04-.43-.05-.65-.06-.08,0-.17,0-.25-.01-.12-.02-.25-.05-.37-.07-.17-.04-.35-.07-.52-.1l-.34-.06c-.19-.03-.37-.06-.55-.09-.07-.01-.13-.04-.19-.06-.19-.06-.42-.14-.7-.18-.2-.03-.39-.04-.58-.05-.11,0-.22-.02-.33-.03-.11-.01-.21-.03-.32-.05-.2-.04-.4-.07-.59-.09-.35-.04-.66.03-.86.07-.05,0-.09.02-.07.03-.06,0-.12-.03-.19-.04-.19-.05-.42-.11-.7-.13-.22-.01-.44,0-.66.02-.08,0-.15.02-.23.01-.14-.01-.28-.03-.42-.04-.15-.02-.3-.04-.43-.05-.06-.01-.11-.03-.17-.05-.18-.06-.43-.14-.72-.17-.34-.03-.63.02-.84.05-.05,0-.09.02-.06.03-.16-.02-.31-.04-.47-.07l-.4-.06c-.08-.01-.15-.04-.22-.06-.21-.07-.42-.13-.63-.16-.12-.02-.24-.05-.35-.08-.17-.04-.33-.08-.5-.11l-.36-.06c-.17-.03-.34-.05-.5-.08-.17-.03-.34-.05-.5-.07-.12-.01-.24-.03-.36-.05-.2-.04-.4-.06-.61-.08-.09,0-.17,0-.25-.03-.11-.03-.21-.07-.32-.1-.17-.06-.34-.12-.51-.16-.07-.02-.14-.06-.21-.09-.19-.09-.39-.18-.59-.24-.2-.06-.41-.09-.62-.12-.07-.01-.15-.02-.22-.04-.16-.05-.32-.09-.48-.13-.12-.03-.23-.06-.34-.1-.21-.08-.44-.12-.66-.16-.06-.01-.13-.02-.17-.03-.12-.05-.23-.11-.35-.17-.14-.07-.27-.14-.41-.21-.18-.08-.36-.18-.54-.27l-.15-.07s-.07-.07-.11-.1c-.14-.14-.33-.32-.6-.48-.32-.19-.63-.25-.84-.29,0,0-.01-.02-.02-.02-.12-.15-.29-.35-.53-.53-.26-.2-.52-.3-.7-.38-.03-.01-.06-.02-.09-.04-.05-.05-.09-.1-.13-.16-.12-.15-.24-.29-.38-.42-.2-.19-.38-.39-.56-.58-.09-.09-.18-.19-.27-.28-.1-.1-.2-.2-.29-.31l-.23-.27c-.08-.09-.15-.18-.23-.27v-.06c-.06-.21-.14-.51-.34-.83-.21-.33-.47-.53-.64-.67h0s-.01-.05-.02-.07c-.06-.22-.13-.44-.23-.64-.06-.12-.12-.24-.18-.35-.07-.13-.14-.26-.2-.39-.03-.07-.04-.15-.06-.23-.05-.2-.1-.39-.18-.58-.1-.26-.2-.52-.3-.8-.11-.3-.27-.53-.38-.69-.03-.04-.06-.08-.05-.05-.02-.08-.03-.16-.04-.23-.03-.21-.07-.42-.13-.62-.04-.14-.08-.29-.12-.43-.03-.14-.07-.27-.11-.41-.08-.28-.2-.51-.29-.68,0-.02-.02-.03-.02-.04.04-.24.09-.59-.01-1-.05-.2-.12-.4-.2-.59-.03-.08-.07-.16-.09-.25-.05-.22-.14-.43-.23-.64-.03-.06-.06-.12-.06-.09,0-.05,0-.1.01-.15.02-.2.04-.48-.01-.8-.06-.36-.21-.64-.31-.83h0c.04-.2.1-.51.06-.86-.02-.21-.07-.41-.12-.61-.02-.08-.04-.15-.05-.23,0-.12,0-.24,0-.35,0-.17,0-.33,0-.5,0-.1,0-.21.02-.31.01-.18.03-.36.03-.54,0-.34-.09-.62-.15-.82,0-.03-.02-.06-.03-.1,0-.16.02-.33.03-.49l.02-.29c0-.08.03-.15.05-.22.05-.2.09-.41.11-.62.01-.14.04-.28.06-.42.02-.14.05-.28.06-.42.01-.11.04-.22.07-.32.04-.17.08-.33.11-.5.05-.33.02-.62,0-.83,0,0,0-.02,0-.03,0,0,0-.02.01-.02.1-.17.25-.43.33-.76.08-.32.07-.6.07-.81,0-.05,0-.09-.02-.04.03-.1.08-.2.12-.29.07-.16.14-.32.19-.49.03-.09.08-.17.12-.25.09-.17.17-.33.24-.5.08-.2.13-.4.17-.61.02-.07.03-.14.04-.19.03-.06.08-.12.12-.18.12-.17.24-.34.33-.53l.04-.09c.11-.22.22-.43.33-.63.18-.31.24-.61.28-.81.16-.12.38-.3.58-.56.1-.14.19-.28.28-.42.05-.09.1-.18.17-.25.1-.12.2-.25.29-.38.07-.09.13-.18.19-.24.05-.04.1-.07.15-.1.19-.12.37-.24.52-.37.16-.14.31-.31.44-.49.04-.05.07-.09.08-.11.07-.05.14-.08.22-.11.17-.08.33-.16.47-.25.23-.14.41-.31.54-.43,0,0,0,0,.01-.01.22,0,.53-.02.86-.15.29-.11.5-.27.66-.39.2.02.46.04.77-.02.31-.06.55-.17.73-.25.03-.01.05-.03.08-.04.12-.01.23-.03.35-.05.11-.02.22-.03.33-.04.08,0,.15.03.23.04.18.04.36.08.54.09.21.02.42.02.62.02.06,0,.12,0,.18,0,.02.01.05.03.07.04.18.09.45.24.8.3.13.02.25.06.38.09.15.04.29.08.43.11.19.04.38.07.56.09.09,0,.17.01.26.04.22.06.43.13.63.21l.14.05c.32.11.6.13.81.14.01,0,.03,0,.04,0,.03.02.05.04.08.06.18.14.35.27.54.37.09.05.17.12.25.18.12.09.25.19.38.27.15.09.3.18.45.25.08.04.15.07.22.12.17.13.37.25.56.35.05.03.1.05.12.05.07.06.12.14.17.22.1.14.21.28.32.41.11.12.2.25.3.37l.2.26c.11.13.22.26.34.39.08.08.15.16.22.24.45.61,1.31.75,1.92.3s.75-1.31.3-1.92c-.13-.18-.28-.34-.43-.5-.07-.07-.13-.14-.19-.21l-.17-.22c-.14-.19-.29-.37-.45-.55-.05-.06-.1-.13-.15-.19-.12-.17-.28-.38-.5-.58-.25-.24-.52-.38-.71-.48-.05-.03-.11-.05-.16-.09-.24-.18-.47-.3-.66-.4-.07-.04-.15-.08-.22-.12-.07-.04-.13-.09-.2-.14-.2-.16-.41-.31-.63-.42-.04-.03-.09-.06-.13-.1-.17-.14-.41-.32-.74-.47-.35-.15-.68-.17-.9-.18-.05,0-.1,0-.09,0l-.13-.05c-.26-.09-.52-.18-.8-.26-.22-.06-.45-.09-.68-.12-.09,0-.18-.02-.27-.04-.09-.02-.19-.05-.28-.07-.19-.05-.37-.1-.57-.14-.03-.01-.05-.03-.08-.04-.13-.07-.31-.15-.52-.21-.05-.13-.11-.25-.17-.38.06-.21.11-.42.12-.63.02-.23.05-.45.08-.68l.02-.12c.04-.28.02-.52,0-.7,0-.06-.01-.11-.02-.12.02-.06.04-.11.07-.17.09-.21.17-.42.22-.63.06-.27.07-.51.07-.69,0-.03,0-.06,0-.09l.02-.02c.12-.17.31-.43.42-.79.05-.16.09-.32.13-.49.02-.11.05-.22.08-.33.06-.17.1-.35.15-.53.02-.1.04-.2.08-.29.07-.19.12-.4.17-.61.02-.07.03-.15.03-.16.03-.04.06-.08.09-.12.12-.16.29-.37.42-.65.05-.11.11-.21.17-.31.08-.14.17-.29.24-.44.08-.16.14-.32.21-.48.04-.1.08-.2.13-.3.09-.18.17-.37.24-.57.03-.07.05-.15.09-.23.08-.15.15-.3.23-.46.05-.1.1-.21.16-.31.06-.1.13-.2.2-.29.1-.13.19-.27.24-.35.03-.03.07-.06.1-.09.15-.14.37-.32.55-.6.11-.17.2-.35.29-.53.04-.08.07-.16.12-.23.13-.19.23-.39.33-.61.03-.06.05-.12.05-.13.04-.04.08-.07.12-.1.15-.12.36-.29.54-.53.09-.12.19-.24.29-.35l.26-.31c.11-.14.22-.3.32-.45.06-.09.11-.18.18-.26.13-.15.24-.32.35-.49.05-.07.09-.15.15-.22.07-.08.14-.14.22-.21.14-.12.28-.25.4-.39.05-.06.12-.11.19-.16.16-.13.32-.26.46-.41.24-.25.38-.52.47-.69,0,0,0,0,0-.01.2-.09.49-.23.76-.49.23-.22.38-.46.48-.63.03-.04.05-.08.01-.06.04-.03.09-.06.14-.08.11-.06.26-.15.41-.26.38-.13.67-.42.82-.78.04-.02.07-.04.11-.06.17-.08.39-.2.62-.38.11-.09.22-.18.33-.28.11-.09.21-.19.33-.27l.28-.22c.13-.1.26-.21.4-.31.18-.13.34-.29.5-.46.05-.05.09-.1.14-.14.13-.09.26-.2.39-.3.1-.08.19-.16.3-.23.1-.07.21-.12.31-.18.14-.08.29-.16.43-.25.17-.11.33-.24.49-.38.06-.05.12-.11.19-.15.12-.07.24-.15.35-.22.12-.08.25-.16.33-.21.05-.02.1-.03.14-.04.19-.05.46-.12.74-.28.12-.07.25-.14.37-.22.12-.07.25-.15.37-.21.2-.1.39-.24.57-.38.05-.04.1-.08.15-.12.13-.06.26-.12.39-.17.14-.06.27-.12.37-.17.05-.02.11-.02.16-.03.19-.04.45-.09.73-.21.16-.07.31-.15.46-.23.1-.06.21-.11.32-.16.27-.12.54-.23.79-.33.09-.04.19-.06.28-.08.19-.05.37-.1.55-.17.18-.07.35-.15.52-.24.08-.04.17-.09.25-.12.22-.08.43-.19.63-.31.03-.02.07-.04.09-.06.02,0,.03,0,.05,0,.21,0,.53.02.89-.09.15-.05.3-.08.45-.12l.37-.1c.37-.1.63-.29.81-.42,0,0,.02,0,.03,0,.21,0,.48.02.81-.05.13-.03.26-.05.39-.07.15-.02.3-.05.44-.08l.36-.08c.16-.04.32-.07.48-.1.3-.05.54-.16.72-.24.05-.02.09-.04.09-.05.11-.02.23-.02.34-.03.17,0,.34-.02.51-.04.08,0,.16,0,.24,0,.21,0,.42.02.62,0,.19-.02.38-.06.57-.1.09-.02.18-.04.27-.05.17-.01.33-.02.5-.02h.35c.18-.02.37-.02.55-.03h.31c.34-.01.62-.1.82-.16.02,0,.05-.01.07-.02.04,0,.08.02.12.03.18.04.42.1.7.11.21,0,.43-.02.65-.04.05,0,.1-.02.15-.02.02,0,.05.02.07.03.19.08.48.19.83.22.37.03.69-.05.9-.11h.05c.05,0,.11.01.16.03.2.05.4.1.6.12.22.03.45.02.67.01.07,0,.13-.01.19,0,.09.01.17.04.25.07.2.06.4.12.59.15.06.01.12.04.18.06.17.06.4.15.67.2.29.05.55.04.75.03.06,0,.11,0,.14,0,.16.03.31.06.46.09l.39.08c.14.03.27.06.41.09.15.03.3.07.45.1.09.02.17.05.26.08.2.07.4.13.6.17.09.02.18.05.27.08.2.06.4.12.6.16.2.04.4.06.6.07.1,0,.21.02.31.04.24.04.48.05.71.04.07,0,.15,0,.18,0,.05.01.1.04.15.05.2.08.47.19.81.22.76.07,1.46-.48,1.53-1.23.07-.76-.45-1.42-1.2-1.49-.05-.01-.09-.03-.14-.05-.18-.07-.43-.17-.74-.21-.2-.03-.41-.03-.62-.03-.08,0-.16,0-.23,0-.17-.03-.34-.05-.51-.06-.12-.01-.23-.02-.35-.04-.09-.02-.17-.05-.26-.07-.19-.06-.39-.12-.59-.16-.08-.02-.16-.05-.24-.07-.2-.07-.4-.13-.61-.17-.12-.02-.25-.05-.37-.08-.16-.04-.33-.08-.5-.11l-.35-.07c-.17-.04-.35-.07-.52-.1-.3-.05-.56-.04-.76-.03-.06,0-.11,0-.14,0-.06-.01-.11-.04-.17-.06-.18-.07-.43-.16-.72-.21-.08-.01-.16-.04-.23-.06-.22-.06-.43-.12-.66-.16-.28-.04-.52-.03-.72-.02-.07,0-.14.01-.21,0-.08,0-.16-.03-.23-.05-.22-.06-.44-.11-.66-.13-.4-.04-.73.04-.94.1,0,0,0,0,0,0-.2-.08-.51-.21-.89-.23-.24,0-.47,0-.71.04-.07,0-.18.02-.2.02-.06,0-.11-.02-.17-.04-.19-.05-.46-.11-.77-.11h-.01c-.35,0-.65.09-.85.15-.04.01-.09.03-.06.03h-.28c-.21,0-.43,0-.64.02h-.31c-.2.02-.41.02-.61.04-.21.02-.43.06-.64.1-.09.02-.18.04-.27.05-.07,0-.15,0-.23,0-.23-.01-.47-.02-.7.01-.1.01-.2.02-.3.02-.21,0-.42.02-.62.05-.32.05-.58.16-.77.24-.05.02-.1.04-.12.05-.19.04-.38.08-.58.12l-.32.07c-.11.02-.21.04-.32.06-.2.03-.39.06-.52.1-.04,0-.09,0-.14,0-.2,0-.52-.02-.87.07-.39.1-.67.3-.86.43-.02.01-.04.03-.06.04l-.24.06c-.15.04-.3.08-.45.12-.22-.41-.52-.68-.75-.88l-.1-.09c-.32-.29-.65-.45-.92-.58l-.19-.12c-.19-.15-.5-.41-.96-.54-.36-.1-.69-.09-.92-.08-.06,0-.11,0-.16,0-.25-.03-.51-.03-.77-.03-.08,0-.17,0-.25,0-.08,0-.17,0-.25-.02-.25-.02-.5-.04-.76-.02-.31.02-.57.1-.77.15-.07.02-.14.04-.2.05l-.17.02c-.27.04-.53.08-.8.14-.09.02-.17.03-.26.05-.24.04-.48.08-.71.15-.27.09-.52.19-.77.3l-.15.06c-.25.1-.48.23-.71.36l-.19.1c-.31.17-.61.33-.89.52-.07.04-.13.09-.2.13-.2.12-.44.27-.67.49-.27.25-.45.51-.59.71l-.08.11s-.04.03-.07.05c-.18.13-.46.33-.67.65-.16.24-.26.47-.34.66-.03.06-.05.13-.09.19-.17.28-.25.55-.31.74-.02.05-.03.1-.04.14-.04.07-.08.13-.13.19-.11.16-.25.36-.37.61-.03.05-.06.09-.1.14-.12.17-.29.4-.4.71-.09.23-.16.47-.22.7l-.06.22c-.11.38-.1.71-.09.93v.06s-.03.06-.04.09c-.1.2-.23.47-.28.83l-.04.25c-.04.28-.08.53-.08.75,0,.09,0,.17,0,.25-.1.07-.21.15-.31.24-.25.23-.41.48-.52.67,0,.02-.02.03-.03.05,0,0-.02,0-.03.01-.2.09-.51.24-.79.52-.26.26-.4.54-.5.73-.02.04-.05.08-.01.06-.06.06-.12.11-.19.16-.18.14-.35.29-.5.45-.07.07-.14.13-.21.2-.16.14-.32.29-.45.44-.15.17-.27.36-.4.55-.05.07-.09.14-.14.21-.14.16-.25.34-.37.51-.05.08-.1.16-.17.24l-.22.27c-.12.15-.25.29-.34.43-.04.04-.08.07-.12.1-.16.13-.38.31-.56.57-.18.24-.28.48-.36.66-.03.06-.05.12-.08.16-.13.19-.23.39-.33.59-.04.07-.07.15-.08.17-.03.03-.07.06-.11.1-.16.14-.39.34-.57.63-.06.09-.12.18-.18.26-.12.17-.24.33-.34.5-.11.18-.2.37-.28.55-.04.09-.09.19-.13.27-.11.21-.2.43-.28.65-.03.07-.05.15-.08.21-.1.19-.18.38-.25.58-.04.09-.07.18-.11.27-.05.09-.1.19-.15.28-.1.18-.2.35-.27.5-.03.04-.06.08-.09.12-.13.17-.31.39-.45.71-.09.22-.15.46-.21.69-.02.07-.03.14-.05.21-.08.21-.14.42-.19.64-.02.09-.04.18-.07.27-.07.2-.12.41-.17.62-.02.07-.03.14-.05.22-.01.02-.03.04-.05.06-.13.18-.33.46-.44.85-.08.31-.09.59-.1.79,0,.06,0,.12,0,.16-.02.06-.05.12-.07.18-.08.18-.18.43-.24.73,0,.02,0,.04,0,.07-.18-.14-.4-.31-.69-.45-.05-.03-.09-.06-.14-.09-.18-.13-.43-.3-.76-.42-.4-.15-.77-.12-1.01-.11h-.09c-.2-.04-.4-.07-.6-.1-.05,0-.1-.01-.16-.02h-.02c-.2-.14-.55-.36-1.01-.41-.41-.04-.75.05-.98.13-.21-.09-.53-.21-.92-.21-.41-.02-.67.09-.87.16-.04.01-.08.03-.06.03-.21,0-.42.02-.63.04l-.35.03c-.28.02-.56.04-.85.07-.07,0-.14,0-.21,0-.24,0-.48-.01-.72.02-.25.04-.5.09-.74.15l-.25.06c-.08.02-.16.02-.24.03-.21.02-.48.05-.78.14-.32.1-.58.26-.76.37-.05.03-.11.07-.15.09-.08.03-.16.05-.24.08-.2.06-.46.14-.72.28-.23.12-.44.26-.66.4l-.22.14c-.06.04-.12.06-.19.09-.19.09-.46.21-.71.4-.35.27-.54.59-.66.81h0s0,.01-.02.01c-.21.1-.54.25-.83.55-.07.07-.13.13-.21.2-.18.17-.35.34-.51.52-.28.34-.39.7-.46.93l-.02.07s-.08.09-.12.14c-.16.18-.31.36-.44.57-.12.2-.24.4-.35.61l-.13.24c-.11.2-.2.41-.29.62-.03.06-.05.12-.08.18l-.04.04c-.18.17-.45.42-.63.83-.1.23-.19.48-.29.72l-.07.19c-.08.21-.14.44-.19.67-.02.09-.04.18-.07.27-.07.22-.12.45-.16.68-.01.08-.02.17-.05.25-.06.21-.1.42-.14.64-.02.1-.03.2-.04.23-.02.04-.04.08-.07.12-.11.19-.27.47-.35.83-.05.22-.07.44-.09.66,0,.1-.01.19-.03.29-.02.1-.05.2-.07.3-.06.21-.11.42-.14.63-.02.1-.04.2-.06.29-.05.21-.1.42-.13.64-.02.2-.03.41-.04.61,0,.11,0,.22-.02.33-.02.21-.02.42-.02.63,0,.11,0,.21,0,.32-.02.34.04.62.08.83.01.05.02.11.03.12,0,.09-.02.19-.03.28-.03.22-.06.44-.06.63,0,.05-.02.11-.03.16-.05.2-.11.48-.11.82,0,.32.02.64.04.95.03.43.18.76.29.98h0s0,.05,0,.07c-.03.21-.08.5-.04.84.03.29.11.53.17.72.02.07.05.14.06.21l.04.29c.03.22.06.44.1.65.04.23.11.44.18.66.02.06.04.11.06.17v.06c-.04.24-.09.6.02,1.01.06.21.13.41.21.61.04.1.07.19.1.29.07.23.17.45.28.67.04.07.07.14.1.21.03.09.05.18.07.27.05.22.1.45.18.66.09.24.19.48.3.71l.08.18c.04.09.07.19.1.28.08.22.15.43.25.63.18.38.45.61.63.77.04.24.1.59.33.95.21.33.47.54.65.68.03.03.08.06.06.03.14.2.3.37.45.55l.12.13.02.06c.08.23.21.59.52.91.17.18.36.33.55.48.07.06.15.11.21.17.24.22.5.44.76.65.29.24.6.35.8.43.04.02.09.04.09.03.08.06.16.12.23.18.18.14.36.28.55.4.08.05.17.11.25.17.18.13.37.25.52.34.04.03.07.07.11.1.16.16.39.37.71.53.29.15.58.21.78.25.06.01.11.02.15.03.26.12.51.18.7.22.05.01.1.02.15.04.02.01.03.03.05.04.17.15.44.38.82.53.22.08.45.13.69.17.08.01.16.02.23.05.19.07.38.12.58.18l.32.1c.09.03.17.07.26.11.2.09.4.17.61.23.11.03.22.04.33.05.2.22.41.44.62.64.06.05.11.12.16.18.13.16.3.36.52.55.29.24.59.37.79.45.03.01.06.02.09.03.02.02.04.05.06.07.14.17.34.41.65.61.35.23.7.3.93.35.01,0,.02,0,.04,0,.01.01.03.03.04.04.15.15.38.37.71.54l.2.1c.21.11.43.23.66.33.09.04.18.09.27.14.19.1.38.2.59.29.28.11.54.16.74.19.07.01.13.02.19.04.2.07.4.13.61.18.1.03.21.05.3.08.22.07.46.11.69.15.08.01.16.02.23.04.07.02.13.06.19.09.18.08.4.19.68.26.09.02.19.06.28.09.2.07.4.14.61.19.21.05.43.07.65.09.09,0,.18.01.27.03.19.04.39.07.59.09.11.01.22.03.33.05.2.04.39.07.59.1l.32.05c.1.02.21.04.31.07.19.05.39.09.59.12.07.01.14.04.21.06.23.07.46.14.69.17l.34.05c.19.03.38.06.57.08.35.04.64-.01.86-.05.05,0,.09-.02.05-.03.05.01.11.03.16.05.19.06.45.15.76.18.12,0,.24.02.36.04.18.02.36.04.55.06.22.02.45,0,.68-.02.08,0,.15-.02.23-.02.06,0,.12.03.18.04.18.05.44.11.73.13.29.01.56-.03.74-.07.05,0,.1-.02.1-.03.11,0,.21.03.32.05.17.03.34.06.52.08.15.02.3.03.45.04.14,0,.27.02.4.04.06.01.12.04.18.06.22.08.45.15.68.18.17.02.33.05.5.08l.37.06c.13.02.26.05.39.08.16.03.32.07.47.09.2.04.41.04.62.05.09,0,.17,0,.25.01.1.02.2.05.29.08.19.05.37.1.56.14.35.06.66.03.87,0,.03,0,.05,0,.08-.01.04.02.09.04.13.05.22.09.45.17.67.21.09.02.18.05.27.08.2.06.39.12.59.16.29.06.55.05.73.05.06,0,.12,0,.17,0,.17.03.34.06.51.08.12.02.25.04.37.06.15.03.31.06.46.08.14.02.28.05.41.08l.75.15.05.03c.19.13.49.32.9.4.21.04.43.06.65.07.08,0,.16,0,.24.02.31.06.58.05.77.04.05,0,.11,0,.13,0,.1.02.19.05.28.08.2.06.39.12.58.15l.88.16c.2.04.39.07.58.09l.31.05c.07.01.13.04.19.06.18.07.42.16.71.2.22.03.44.05.64.07l.28.03c.32.04.6.01.8,0,.06,0,.11,0,.17-.01.08,0,.16.03.24.04.22.05.45.09.67.1.33.02.62-.05.82-.09.03,0,.05-.01.08-.02.02,0,.04.01.06.02.2.07.5.18.87.2.13,0,.26.01.4.02.17.01.34.02.52.03.34.01.62-.06.83-.11.05-.01.1-.03.08-.03.1,0,.21.02.31.03.2.02.4.05.6.05l.92.02c.11,0,.22.01.33.02.2.02.42.04.59.04.22,0,.43-.03.65-.06.08-.01.17-.03.26-.03h.91c.1.01.16.01.24.03.22.03.46.06.68.05h.36c.19,0,.37-.01.55-.02.32,0,.59-.08.78-.14.04,0,.07-.02.11-.03.03,0,.05.01.08.02.2.05.51.13.87.11.21,0,.42-.04.63-.08.09-.02.18-.04.27-.04.12,0,.24,0,.35,0,.21,0,.38,0,.57-.01.17-.01.35-.03.52-.05l.39-.04c.1,0,.21,0,.32,0,.2,0,.41,0,.6-.02.22-.02.44-.07.66-.12.08-.02.17-.05.25-.05.12-.01.24-.02.36-.02.18-.01.37-.02.56-.04.18-.02.36-.05.54-.08.12-.02.25-.04.37-.06.12-.02.25-.03.37-.04.18-.02.36-.04.54-.06.11-.02.21-.02.32-.03.2-.01.41-.03.6-.06.21-.03.41-.08.61-.14.1-.03.2-.06.29-.07.29-.05.54-.15.72-.22.06-.02.12-.05.16-.06.06,0,.13,0,.19,0h0c.19,0,.46,0,.74-.06.1-.02.2-.03.3-.04.21-.02.41-.05.61-.1.36-.08.63-.24.82-.35.01,0,.02-.01.03-.02.01,0,.02,0,.03,0,.22.02.55.04.92-.06.28-.08.52-.19.69-.28.06-.03.12-.06.17-.08.21-.06.4-.14.6-.22.09-.04.18-.08.27-.11.19-.06.37-.12.55-.19.11-.04.21-.08.3-.11.05-.01.11-.01.16-.02.2-.02.48-.05.78-.15.2-.07.4-.16.59-.26.09-.04.17-.09.26-.12.19-.07.37-.15.56-.23l.31-.13c.27-.11.49-.25.65-.36.06-.04.11-.08.1-.08.05-.01.09-.02.14-.02.21-.03.52-.07.84-.22.33-.15.56-.36.72-.5.04-.03.06-.06.05-.06l.3-.14c.18-.08.36-.17.54-.26.1-.05.2-.1.31-.15.18-.08.36-.17.44-.23.04-.01.09-.02.13-.03.22-.04.54-.11.87-.31.28-.17.48-.37.63-.52.04-.04.08-.08.09-.1.17-.11.33-.22.49-.34.09-.07.18-.13.27-.2.07-.05.15-.08.22-.12.21-.1.41-.21.6-.34.16-.12.32-.25.48-.37.09-.07.17-.14.26-.21.26-.19.43-.41.56-.57.04-.04.07-.09.09-.12.05-.04.11-.06.17-.09.17-.09.41-.22.63-.41.19-.16.38-.33.57-.5l.14-.13c.06-.06.13-.1.2-.15.19-.13.38-.27.55-.43.23-.22.45-.44.67-.66.16-.17.3-.35.44-.55.05-.07.09-.14.15-.2.16-.17.3-.37.43-.56.04-.07.08-.13.08-.14.04-.03.08-.05.12-.08.18-.11.45-.29.69-.57.07-.08.14-.16.21-.23.15-.15.29-.3.42-.47.13-.16.24-.34.36-.52.06-.09.11-.18.17-.26.06-.08.13-.15.19-.22.14-.16.29-.32.41-.5.23-.33.32-.67.38-.89,0-.01,0-.03.01-.04.02-.02.04-.04.07-.06.15-.14.35-.34.52-.61.11-.18.21-.36.3-.55.05-.09.09-.19.14-.27.05-.08.11-.16.17-.24.13-.17.25-.35.36-.54.1-.17.18-.35.27-.53.05-.1.09-.2.15-.3.14-.26.21-.51.27-.69.02-.06.03-.13.06-.18.03-.06.07-.1.11-.16.12-.15.28-.36.41-.63.09-.18.16-.37.23-.57.04-.1.07-.2.12-.29.04-.09.09-.18.14-.27.1-.18.21-.37.29-.56.09-.22.18-.44.28-.66l.08-.19c.03-.06.07-.12.11-.18.1-.17.23-.38.34-.64.15-.39.15-.74.15-.97v-.03s.03-.04.04-.06c.11-.17.27-.41.38-.71.04-.1.08-.21.12-.31.08-.18.15-.37.22-.56.09-.28.12-.52.14-.72,0-.07.01-.13.03-.19.03-.09.07-.17.1-.25.09-.2.18-.41.24-.62.09-.29.1-.56.11-.76,0-.03,0-.07,0-.1l.02-.03c.13-.19.34-.47.44-.87.09-.35.07-.67.06-.88,0-.05,0-.1-.02-.06.04-.18.08-.36.11-.54.02-.12.04-.24.05-.29.02-.04.04-.08.07-.12.1-.18.26-.46.34-.82.07-.34.05-.63.04-.84,0-.05,0-.09-.01-.09,0,0,0,0,0,0,.02-.08.05-.16.08-.24.07-.21.14-.43.19-.65.04-.22.05-.44.06-.67,0-.08,0-.17.01-.25l.06-.34c.04-.19.07-.38.08-.48.02-.04.04-.08.06-.12.1-.19.24-.48.3-.85.06-.39,0-.73-.05-.95,0-.02-.01-.05-.01-.07.01-.07.03-.14.05-.21.05-.2.1-.41.12-.56.01-.05.04-.09.06-.14.08-.2.2-.47.24-.81.05-.41-.04-.76-.1-.98v-.06c0-.07.01-.14.03-.22.04-.2.08-.39.1-.59l.04-.38c.02-.18.04-.36.06-.54.02-.2.02-.4.01-.61,0-.1,0-.21,0-.32,0-.09.03-.18.05-.27.05-.21.09-.43.1-.64,0-.07.03-.14.05-.22.06-.23.11-.46.12-.69,0-.12.02-.23.03-.35.02-.19.04-.38.05-.58,0-.18,0-.36,0-.54,0-.12,0-.25,0-.38.01-.33-.05-.61-.1-.81-.01-.05-.03-.1-.03-.12v-.92c.01-.1.03-.21.04-.32ZM37.26,55.77s.06-.1.1-.14c.12-.17.28-.4.41-.69.03-.07.08-.13.13-.19.13-.18.25-.37.36-.58.11-.21.19-.45.27-.7.02-.06.04-.13.05-.17.11-.18.2-.38.28-.59.02-.05.04-.11.07-.16l.04-.03c.18-.14.46-.34.71-.67.07-.09.13-.19.2-.29.08-.12.16-.24.22-.29.08-.08.18-.12.27-.18.12-.08.24-.15.37-.24.22-.15.44-.28.69-.41l.25-.14c.16-.09.31-.18.48-.25l.19-.08c.2-.09.39-.17.59-.24.11-.03.22-.05.33-.06.17-.03.34-.05.51-.09.21-.05.42-.08.63-.11l.21-.03c.21-.03.41-.09.61-.15.07-.02.15-.05.22-.06.13,0,.26,0,.38.02.15.01.3.03.45.03.14,0,.28,0,.41,0,.13,0,.26-.01.39,0,.23.04.47.03.7.03,0,0,.02,0,.02,0,.14.13.34.3.6.44l.21.11s.04.03.07.04c-.04.01-.08.02-.12.04-.23.06-.46.13-.68.22-.31.13-.62.26-.94.4-.2.09-.39.19-.58.29-.11.06-.22.12-.3.16-.06.02-.11.02-.17.04-.22.04-.53.1-.86.26-.11.06-.23.11-.35.16-.2.09-.4.17-.59.27-.29.15-.52.33-.69.46-.06.05-.11.1-.17.13-.19.1-.38.21-.56.33-.11.07-.22.13-.28.17-.05.02-.11.03-.16.04-.23.06-.54.14-.86.34-.19.11-.37.23-.55.35l-.33.21c-.22.14-.41.3-.61.47-.07.06-.13.13-.2.17-.1.07-.21.13-.31.19-.2.11-.39.23-.57.35-.18.13-.36.27-.53.41-.1.08-.19.16-.29.23-.26.19-.46.41-.61.56-.05.06-.1.11-.15.16-.05.03-.09.07-.13.11l.06-.2c.05-.18.1-.36.14-.48ZM12.41,113.55c-.07-.02-.14-.03-.2-.05-.27-.12-.52-.18-.71-.22-.04,0-.07-.01-.11-.02-.02-.02-.05-.04-.07-.07-.14-.14-.34-.32-.61-.47-.12-.07-.23-.14-.33-.22-.12-.08-.24-.16-.36-.24-.11-.07-.21-.15-.3-.23-.12-.09-.23-.18-.35-.27-.26-.18-.51-.28-.7-.35-.04-.02-.1-.04-.06,0-.21-.17-.42-.35-.62-.53-.12-.12-.26-.22-.4-.33-.05-.04-.1-.08-.15-.12v-.03c-.08-.21-.2-.52-.45-.82l-.22-.26c-.1-.12-.21-.23-.3-.36-.19-.26-.4-.43-.56-.56-.04-.22-.09-.53-.27-.84-.18-.33-.43-.55-.59-.69l-.04-.03c-.03-.07-.05-.14-.08-.21-.05-.16-.11-.32-.18-.48l-.09-.2c-.08-.19-.17-.38-.24-.58-.03-.09-.05-.18-.07-.27-.04-.19-.09-.37-.15-.55-.06-.19-.15-.38-.24-.56-.04-.08-.08-.15-.11-.23-.05-.16-.11-.32-.17-.48-.03-.08-.06-.15-.08-.23v-.04c.04-.23.08-.58,0-.98-.04-.17-.09-.33-.15-.5-.03-.1-.07-.2-.09-.31-.03-.17-.06-.34-.08-.52l-.05-.32c-.03-.2-.09-.41-.15-.61-.02-.07-.05-.15-.06-.17,0-.05.01-.1.02-.15.03-.2.07-.46.05-.78-.04-.4-.19-.71-.28-.91l-.03-.05c-.01-.25-.02-.49-.03-.7,0-.05.02-.11.03-.16.04-.19.11-.45.11-.75,0-.1.02-.19.03-.29.03-.19.05-.38.06-.58,0-.3-.04-.56-.08-.75-.01-.05-.02-.11-.03-.11.01-.17.01-.34,0-.51,0-.12,0-.24,0-.36.01-.15.02-.31.03-.46,0-.14.01-.27.03-.4.01-.11.04-.21.07-.32.04-.18.09-.36.11-.53.02-.11.05-.22.08-.33.05-.17.09-.34.12-.52.03-.18.05-.36.07-.55,0-.1.01-.21,0-.22.02-.04.04-.08.07-.12.1-.18.25-.43.33-.76.04-.17.07-.34.1-.5.02-.11.04-.22.07-.33.06-.19.09-.39.12-.58.01-.09.02-.17.05-.26.06-.17.1-.35.14-.53.02-.1.04-.2.08-.29l.08-.2c.06-.16.12-.32.19-.48l.04-.04c.16-.15.41-.38.58-.74.07-.14.13-.29.19-.44.04-.11.09-.22.15-.32l.16-.29c.08-.15.15-.29.24-.42.06-.09.13-.17.2-.24.11-.13.22-.26.32-.4.23-.31.32-.63.38-.84v-.04c.08-.07.14-.13.21-.19.08-.07.16-.15.23-.22.02-.01.05-.02.07-.03.18-.08.46-.21.71-.44.28-.25.43-.52.54-.71h0s.07-.04.1-.06c.18-.08.37-.17.53-.28l.27-.18c.13-.08.25-.17.39-.25.08-.04.17-.06.25-.09.16-.05.33-.1.49-.17.19-.08.37-.18.55-.3.05-.03.11-.07.14-.09.08-.02.16-.02.24-.03.19-.02.37-.04.55-.08l.3-.07c.16-.04.31-.08.47-.1.08,0,.15,0,.22,0,.21,0,.42.01.62,0,.26-.03.5-.05.82-.07l.33-.03c.16-.01.33-.03.48-.04.32-.01.59-.09.78-.15.2.08.48.2.83.22.33.02.6-.05.81-.11.18.11.43.24.74.29.14.03.28.04.42.06.11.01.23.03.33.05.34.09.64.07.85.06.02.01.04.03.06.04.16.11.32.22.49.3.09.04.16.11.23.17.11.08.22.17.33.24.24.16.47.25.63.31.02,0,.04.02.06.02.03.03.07.08.1.11-.05,0-.11.02-.16.02-.41.03-.73.18-.94.28-.02,0-.04.02-.05.03-.02,0-.04,0-.06,0-.23-.02-.58-.05-.98.06-.39.11-.68.32-.86.46,0,0,0,0-.01.01-.25,0-.65.02-1.06.23-.32.16-.55.38-.71.53-.04.04-.08.08-.11.1-.06.04-.13.07-.2.1-.19.09-.43.21-.68.39-.27.2-.45.43-.58.6-.04.05-.07.1-.11.13-.05.04-.1.07-.15.1-.18.11-.43.27-.66.5-.16.17-.31.36-.45.55-.06.08-.11.15-.17.23-.15.18-.28.38-.4.58-.05.08-.1.16-.1.17-.03.03-.07.05-.1.08-.18.14-.45.35-.67.68-.23.35-.3.7-.34.93,0,.03,0,.06-.02.08-.13.23-.25.47-.41.78-.03.06-.08.12-.12.17-.12.17-.27.38-.39.65-.12.27-.17.52-.22.72-.02.07-.03.14-.05.21-.03.08-.07.16-.11.23-.11.21-.21.42-.29.64-.03.09-.07.17-.11.26-.09.21-.18.41-.24.63-.1.35-.09.68-.09.89,0,.02,0,.04,0,.07,0,.02-.02.03-.03.05-.11.19-.28.47-.35.85-.08.36-.04.69-.01.9,0,.05.01.09.02.06-.02.1-.04.19-.06.28-.05.21-.1.42-.13.64-.01.11-.03.21-.05.32-.03.2-.07.41-.08.61,0,.07-.03.14-.05.22-.05.19-.11.44-.12.72l-.02.27c-.01.22-.03.45-.03.68,0,.37.09.68.15.88.01.04.03.09.03.06,0,.09,0,.19-.02.28-.02.22-.03.44-.02.66,0,.1,0,.2,0,.31,0,.21,0,.43,0,.64.02.23.07.46.13.69.02.08.04.15.05.14,0,.04-.01.09-.02.13-.04.22-.11.54-.05.93.06.39.21.69.32.88,0,.01.01.02.02.04,0,.02,0,.04,0,.06-.02.22-.05.52.02.87.06.29.17.54.24.71.03.06.06.12.07.18.05.22.13.43.21.63.02.04.04.09.05.13v.03c-.04.24-.1.61,0,1.03.08.31.21.55.3.73.03.05.06.1.07.12l.09.34c.05.19.09.37.15.55.02.08.03.16.04.24.04.23.08.46.15.67.11.34.28.58.41.76.03.04.05.08.05.06.11.3.22.59.33.88.03.08.05.15.07.23.06.23.12.46.22.68.09.2.19.39.29.58.05.09.1.18.14.26.02.05.04.11.05.17-.03-.01-.05-.03-.08-.04-.2-.08-.41-.14-.62-.19Z"/>
      <g>
        <path class="cls-2" d="M81.49,8.75c-.1.01-.43,0-.85,0,.26-.43.48-.8.64-1.01.28-.38.18-.83-.2-1.1-.38-.28-.79-.2-1.07.18-.18.25-.45.62-.76,1.06-.14-.44-.25-.88-.44-1.22-.23-.41-.8-.42-1.21-.19-.41.23-.58.65-.35,1.06.2.35.38.79.58,1.24-.09,0-.19.01-.28.01-.58,0-1.1-.11-1.47-.1-.47.01-.84.48-.83.95.01.47.36.82.87.83.32,0,.76,0,1.24,0-.27.42-.5.77-.64.94-.31.36-.24,1.01.11,1.32.16.14.41.18.6.18.24,0,.41-.18.58-.37.2-.24.49-.66.83-1.16.33.69.62,1.07.77,1.31.16.25.42.35.7.35.16,0,.31,0,.45-.09.4-.25.41-.71.16-1.1-.09-.14-.25-.7-.46-1.25.15,0,.29,0,.41,0,.4,0,.67,0,.81-.02.47-.05.87-.56.82-1.02-.05-.46-.55-.82-1.02-.77Z"/>
        <path class="cls-2" d="M62.43,11.79c.13.41.23.8.33,1.19-.03,0-.04,0-.07.02-.46.11-.75.62-.64,1.07.1.39.47.7.85.7.07,0,.11-.2.17-.22.08-.02.14-.03.2-.05.07.18.15.37.2.54.11.38.2.71.26.98-.22.14-.38.26-.81.49-.41.22-.53.78-.3,1.19.15.29.43.47.73.47.14,0,.34.07.46,0,.55-.3.43-.63,1.03-.69.02.02.05.04.07.03.03,0,.67.17,1.29.35.46.13.81-.2.93-.65.13-.45,0-.9-.46-1.03-.57-.16-.75-.22-1.07-.31-.08-.31-.19-.71-.32-1.18-.04-.15-.1-.32-.15-.48,0,0,.01,0,.02,0,.46-.11.8-.65.69-1.1-.11-.45-.63-.6-1.08-.49-.06.01-.1.02-.15.03-.19-.39-.46-.78-.6-1.23-.11-.33.36-.9.57-.84.39.11.76.23,1.13.32.12.03.22.06.33.09,0,.04-.02.07-.03.12-.1.46.15.85.61.96.06.01.11,0,.18,0,.39,0,.74-.2.83-.6,0,0,0,0,0-.01.51.14.93.28,1.25.4,0,.22-.04.4.04.8.08.41.38.7.78.7.05,0,.27.09.33.08.46-.09.65-.65.56-1.11-.09-.48-.23-.5-.09-.97.17-.57.28-.53.67-.99.3-.36.35-.86,0-1.16-.36-.3-.86-.18-1.16.18-.36.44-.46.58-.66.84-.29-.12-.63-.26-1.05-.37-.09-.02-.19-.04-.29-.06.02-.09.04-.2.07-.32.1-.46-.17-1.01-.63-1.12-.46-.11-.9.29-1,.75-.03.12-.05.23-.07.33-.44-.11-.88-.24-1.35-.35-.27-.06-.49-.59-.12-1.01.48-.54.51-.66.86-1.07.13.11.29.23.49.39.16.12.4.2.58.2.25,0,.43-.26.6-.47.29-.37.34-.91-.04-1.19-.15-.12-.28-.21-.39-.3.04-.04.07-.08.11-.12.35-.39.47-.55.64-.76.25.1.55.21.93.34.09.03.17-.01.26-.01.35,0,.7-.11.82-.46.15-.44-.13-.86-.57-1.01-.37-.13-.73-.4-.91-.51-.11-.21-.39-.63-.55-1.01-.18-.43-.69-.78-1.12-.6-.43.18-.66.84-.48,1.27.08.2.23.58.38.91-.23.15-.43.25-.77.63-.08.09-.15.17-.21.25-.05-.04-.09-.07-.14-.11-.37-.29-1.01-.3-1.3.07-.29.37-.14,1.02.23,1.31.05.04.08.06.12.1-.32.39-.35.53-.82,1.06-.33.37-1.09-.14-1.24-.58-.11-.33-.15-.67-.2-1,.11-.04.22-.08.36-.12.44-.15.79-.72.64-1.17-.15-.45-.81-.77-1.25-.62-.11.04-.2.07-.29.1-.07-.19-.15-.39-.21-.57-.16-.48-.36-.85-.52-1.15.12-.2.17-.34.43-.66.3-.36.25-.72-.12-1.01-.36-.3-.79-.34-1.09.03-.26.32-.15.51-.53.67-.48.19-.54-.12-1.06-.12,0,0,0,.11,0,.11-.47,0-.87.34-.87.8,0,.47.39.88.86.88.37,0,.55-.03.73-.07.12.3.26.68.42,1.14.06.18.13.39.2.59-.06.02-.11.04-.17.06-.44.15-.67.74-.52,1.18.12.35.47.55.82.55.09,0,.22.09.31.06.09-.03.16-.06.24-.08.13.27.27.54.37.83.13.4-.43,1.17-.82,1.08-.17-.04-.33-.09-.49-.13.02-.09.03-.18.05-.29.08-.46-.37-.92-.84-1-.45-.07-.83.24-.91.7-.01.07-.02.13-.04.2-.38-.05-.75-.09-1.06-.15-.42-.08-.76-.16-1.03-.22.01-.17.03-.34-.02-.67-.08-.46-.68-.83-1.13-.75-.46.08-.63.59-.55,1.05.08.47.09.49.04.96-.05.41-.08.42-.26.8-.21.42-.17.97.25,1.18.12.06.29.01.41.01.32,0,.68-.16.83-.46.1-.21.14-.34.16-.47.37.02.77.04,1.17.12.25.05.53.11.8.17-.01.07-.03.14-.04.23-.08.46.31.82.77.9.05,0,.08.18.13.18.41,0,.83-.36.9-.78,0-.06.02-.1.03-.15.35.08.69.15,1.04.23.21.05.36.74-.07,1.23-.27.31-.45.44-.62.56-.08-.08-.18-.18-.29-.28-.34-.32-.97-.24-1.3.1-.33.34-.22.79.12,1.12.12.11.21.21.3.31-.12.18-.24.36-.53.68-.42.47-.48.64-.71.95-.34-.12-.45-.24-1-.37-.46-.11-.84.26-.95.71-.11.46.05,1,.5,1.12.5.12.66-.23,1.05.11.37.33.11.5.27.96.12.35.48.54.83.54.09,0,.15-.09.25-.12.44-.15.78-.57.63-1.01-.13-.38-.25-.53-.36-.71.3-.38.34-.53.8-1.05.16-.18.27-.32.35-.43.04.04.06.07.1.11.17.16.45.16.67.16s.52,0,.69-.18c.33-.34.28-.99-.06-1.32-.07-.07-.13-.13-.19-.19.22-.16.4-.27.74-.66.37-.42.79-.38.87-.15Z"/>
        <path class="cls-2" d="M72.9,26.14c-.1-.46-.43-.67-.88-.56-.43.1-.71.42-.66.83-.43.03-.89,0-1.34.09-.39.07-.79-.07-.57-.57.3-.7.23-.78.49-1.42.06.04.12.08.2.08.33,0,.62-.15.76-.47.19-.43.04-1.01-.39-1.19-.68-.29-.77-.08-1.45-.37-.43-.19-.94-.15-1.12.29-.16.37-.01.87.3,1.13-.2.51-.17.62-.44,1.26-.18.42-.55.64-.63.56-.52-.52-1-.89-1.25-1.12.37-.27.53-.74.27-1.12-.27-.39-.86-.51-1.25-.25-.36.25-1.13.96-1.46,1.4-.28.38-.32.93.05,1.21.15.12.39.11.57.11.22,0,.4-.12.56-.28.19.19.43.44.72.74.25.26-.08,1.07-.52,1.15-.67.12-1.21.1-1.51.08-.01-.03-.02-.06-.03-.08-.13-.44-.53-.84-.98-.71-.45.13-.55.68-.43,1.13.06.23.3,1.53.3,1.53.07.41.31.7.71.7.05,0,.08-.07.14-.08.44-.08.86-.43.83-.86.3-.05.7-.12,1.17-.21.37-.07,1.07.15.91.52-.28.65-.44.67-.69,1.16-.3-.04-.59.07-.74.36-.21.42-.03.97.39,1.18.47.24.5.19.96.43.12.06.24.1.37.1.31,0,.7-.1.85-.4.15-.3.06-.66-.16-.92.22-.54.23-.62.52-1.28.28-.65.97-.6,1.34-.26.26.25.6.45.92.68-.28.29-.23.8.02,1.15.17.23.35.27.62.27.17,0,.4.17.55.07.67-.48.68-.46,1.35-.94.38-.27.35-.85.08-1.24-.27-.38-.75-.52-1.13-.25-.03.02-.04.03-.07.04-.44-.41-.93-.79-1.36-1.21-.09-.08.28-.45.52-.49.6-.11,1.1-.16,1.43-.2.1.38.4.7.78.7.06,0,.15.02.21,0,.46-.1.63-.62.53-1.08-.16-.71-.18-.7-.34-1.41Z"/>
      </g>
      <path class="cls-4" d="M77.59,63.36c-.16,0-.32-.02-.49-.06-.51-.13-.99-.42-1.35-.81-.05-.05-.11-.1-.17-.15-.19-.16-.42-.36-.6-.66-.17-.3-.24-.59-.3-.83-.02-.08-.03-.15-.06-.22l-.06-.18c-.08-.24-.17-.51-.22-.83-.02-.15-.09-.71.04-1.27.1-.44.32-.85.48-1.12.34-.57.96-.69,1.29-.76.62-.13,1.01-.13,1.34-.03.53.16.82.72.66,1.25-.16.5-.68.79-1.18.68-.04,0-.14,0-.33.05-.07.01-.12.02-.16.03-.07.13-.12.25-.14.35-.04.15-.03.38,0,.52.02.17.08.32.13.48l.07.22c.04.12.07.24.1.37.02.1.06.25.08.29.04.04.1.09.16.14.12.1.23.2.33.31.11.12.26.21.4.25h0s.18-.03.28-.05c.12-.02.24-.05.36-.06.14-.02.29-.02.44-.03.04,0,.08,0,.12,0,.04-.05.08-.11.12-.16,0,0,0,0,0,0-.03-.14-.06-.33-.06-.54,0-.08,0-.16.02-.24,0-.1.02-.2,0-.24l-.06-.23c-.03-.13-.06-.26-.12-.4-.23-.5-.01-1.09.49-1.33.5-.23,1.09-.01,1.33.49.13.29.2.55.25.77l.04.17c.11.38.08.72.06.94v.14s0,.07.01.11c.05.26.13.69-.1,1.14-.17.34-.42.67-.69.95-.44.44-1,.45-1.37.46-.08,0-.16,0-.24.01-.07,0-.15.02-.22.04-.19.04-.42.09-.69.09ZM78.69,61.34s0,0,0,0t0,0ZM76.89,58.34s0,0,0,0c0,0,0,0,0,0ZM76.56,58.25s0,0,0,0c0,0,0,0,0,0Z"/>
      <path class="cls-4" d="M94.9,62.62c-.14,0-.28,0-.42-.02-.08,0-.16,0-.24-.01-.23,0-.51,0-.82-.09-.41-.11-.69-.33-.88-.48-.04-.03-.07-.06-.11-.08-.03,0-.09-.03-.15-.05-.22-.07-.52-.16-.82-.38-.06-.04-.12-.08-.19-.12-.21-.13-.48-.3-.72-.55-.29-.3-.51-.65-.68-.92-.2-.32-.27-.62-.32-.85-.01-.06-.02-.11-.04-.17-.14-.33-.26-.64-.34-.96-.09-.33-.16-.65-.21-.99,0-.07-.03-.14-.05-.21-.05-.21-.12-.48-.13-.79-.01-.69.54-1.26,1.23-1.27h.02c.68,0,1.24.54,1.25,1.22,0,.07.03.14.05.22.04.16.08.33.1.49.03.24.09.47.15.69.06.22.14.42.23.62.08.21.13.39.18.58.01.05.02.11.04.16.08.11.21.33.32.44.04.04.17.12.26.18.1.06.19.12.29.19.02,0,.08.02.14.04.16.05.32.1.48.18.24.11.42.25.56.35.02.02.04.03.06.05.04,0,.08,0,.12,0,.01,0,.02,0,.04,0,.16,0,.33,0,.5.03.12.01.24,0,.36,0,.12,0,.24,0,.37,0,.69,0,1.25.56,1.25,1.25s-.56,1.25-1.25,1.25c-.09,0-.17,0-.26,0-.12,0-.23,0-.35,0Z"/>
      <path class="cls-4" d="M89.32,51.27l-2.16-3.64c-.04-.06-.09-.1-.14-.15-.15-.46-.49-.81-.99-1.02-.01,0-.02,0-.03-.01-1.67-.59-3.52-.5-5.09.23-1.29.61-3.24,1.53-3.24,3.34,0,.08-.1.61-.08.69,0,.03.02.06.03.09-.02.1-.03.21-.02.32.16,1.12.49,1.89.75,2.51.14.33.27.62.34.92.12.43.31,1.14.91,1.59.38.29.81.39,1.21.45.4.06.93.12,1.53.12,2.18,0,5.34-.74,7.03-4.61.12-.27.1-.59-.05-.84ZM85.37,48.19h0s0,0,0,0c0,0,0,0,0,0ZM81.7,48.36c1.09-.51,2.37-.59,3.54-.21-.08.18-.28.48-.55.7-1.2.99-2.82,1.43-3.93,1.51-.89.06-1.14-.21-1.23-.43.15-.61,1.5-1.25,2.17-1.56ZM81.11,54.77c-.21-.03-.34-.07-.38-.1-.1-.07-.2-.44-.24-.6-.11-.42-.27-.8-.43-1.16-.1-.23-.2-.48-.29-.73.24.02.49.03.76.03.12,0,.24,0,.37-.01.68-.05,3.04-.34,4.96-1.93.14-.11.3-.27.45-.45l1.17,1.97c-1.54,3.03-4.29,3.3-6.38,2.98Z"/>
      <path class="cls-4" d="M80.86,116.63c-.08,0-.17,0-.26-.01-.08,0-.15,0-.22,0-.26,0-.59,0-.96-.1-.34-.09-.6-.25-.82-.38-.08-.05-.16-.09-.24-.14-.04-.01-.09-.03-.15-.04-.23-.06-.54-.15-.85-.35-.21-.13-.42-.28-.62-.44l-.22-.17c-.36-.26-.55-.59-.68-.81-.01-.02-.02-.04-.03-.06-.04-.02-.08-.04-.11-.07-.19-.11-.45-.27-.69-.51-.23-.23-.39-.47-.53-.66-.05-.07-.09-.13-.14-.2-.02-.02-.07-.05-.11-.09-.2-.17-.5-.42-.7-.82-.25-.49-.28-.98-.3-1.3v-.13c-.02-.08-.03-.16-.05-.25-.04-.21-.07-.43-.08-.65,0-.15-.01-.3-.01-.46,0-.13,0-.26-.01-.39,0-.07-.03-.15-.05-.22-.04-.19-.09-.39-.11-.58-.01-.17-.02-.33-.02-.48,0-.1,0-.19-.01-.28l-.03-.15c-.03-.17-.04-.32-.09-.46-.38-.3-.72-.68-.96-1.08-.17-.29-.39-.74-.49-1.25-.09-.43-.02-.82.02-1.08,0-.06.02-.12.02-.17.03-.46.16-.84.27-1.16.11-.31.23-.54.32-.69h0c.02-.33.07-.78.41-1.22.17-.22.38-.43.72-.73.33-.29.7-.41,1-.5.07-.02.14-.04.21-.07.27-.1.52-.14.7-.16.06,0,.12-.01.17-.03.14-.05.28-.11.41-.17l.05-.12c.19-.39.48-.62.66-.77l.08-.06s.07-.13.12-.22l.08-.15c.11-.19.25-.37.39-.54.04-.05.09-.11.13-.17l.15-.27c.08-.16.17-.31.25-.48.06-.14.11-.28.17-.43l.13-.35c.04-.11.08-.24.11-.36.04-.15.08-.29.13-.44.06-.17.13-.35.21-.52.04-.08.09-.17.11-.26,0,.01-.01-.04-.01-.09,0-.2,0-.46.05-.77.06-.27.11-.55.16-.84.05-.32.17-.57.25-.75.02-.05.05-.09.06-.14,0-.04,0-.14,0-.25,0-.19,0-.38.02-.57.07-.76.74-1.31,1.5-1.24.76.07,1.31.74,1.24,1.5-.01.11,0,.21,0,.32,0,.22,0,.44-.03.66-.05.37-.18.67-.27.87-.02.04-.04.09-.06.13-.04.27-.1.58-.17.89,0,.04,0,.09,0,.15,0,.22,0,.51-.08.85-.08.29-.18.52-.27.71-.03.07-.07.14-.09.22-.03.1-.06.21-.09.31-.06.22-.12.44-.2.65l-.11.29c-.08.22-.16.44-.26.64-.1.22-.22.43-.33.64l-.13.23c-.14.26-.31.47-.43.63-.04.05-.09.1-.13.16l-.06.11c-.1.18-.24.43-.44.68-.15.19-.31.31-.43.41-.16.34-.45.85-1.06,1.14-.27.13-.6.28-.93.39-.21.07-.44.11-.66.15-.05,0-.11.01-.16.03-.08.03-.2.07-.31.11-.04.01-.07.02-.11.03-.05.04-.09.08-.12.12-.01.16-.04.33-.1.51-.05.16-.14.33-.24.52-.03.06-.08.12-.1.21-.07.19-.13.37-.13.47,0,.14-.03.29-.06.44,0,.05-.02.09-.02.14.03.09.08.21.16.36.05.08.15.19.24.26.45.34.75.76.94,1.29.11.32.16.63.21.93l.02.14c.04.22.05.45.05.69,0,.09,0,.18,0,.27,0,.07.03.14.05.21.05.23.1.45.11.69.01.17.01.34.02.51,0,.12,0,.24.01.36,0,.12.03.23.05.34.03.16.05.32.07.47v.19c.02.05.02.12.03.18,0,0,0,0,0,0,.14.12.34.29.52.52.07.09.14.19.21.29.08.11.15.22.24.32.03.02.08.05.14.08.19.11.37.23.54.38.29.24.45.53.56.71.01.02.02.04.03.06l.17.12c.13.1.26.2.4.29.04.01.1.03.17.05.21.06.41.13.59.21.16.08.31.16.45.25.07.04.13.08.2.11,0-.01.12-.02.21-.01.15,0,.31,0,.45.02.1,0,.16-.02.24-.03.15-.02.31-.04.46-.05.24-.02.46-.05.71-.1.24-.05.46-.13.7-.21.18-.06.36-.11.55-.15.07-.02.14-.03.2-.05.08-.04.16-.12.24-.19.11-.09.22-.17.33-.25.23-.17.41-.29.57-.43.11-.1.24-.2.37-.29.07-.05.15-.1.21-.16.06-.07.11-.15.16-.23.09-.13.17-.26.27-.38.2-.25.43-.42.59-.53.02-.01.04-.03.06-.04.06-.09.11-.19.16-.28.05-.09.1-.17.15-.26l.02-.08c.04-.19.1-.49.27-.79.06-.11.11-.21.15-.32.06-.14.13-.29.2-.42.1-.18.22-.36.34-.52.04-.06.09-.12.12-.18.15-.3.35-.53.49-.69.04-.04.07-.08.1-.12l.15-.3c.09-.18.18-.36.27-.52.04-.07.06-.14.08-.21.07-.19.15-.42.29-.66.18-.3.4-.51.55-.66.04-.03.07-.07.1-.1.02-.04.06-.14.11-.24.08-.18.17-.36.27-.53.11-.18.24-.35.37-.51.04-.04.08-.09.11-.13,0-.02,0-.05,0-.07.03-.2.07-.5.22-.82.06-.14.11-.28.16-.43l.13-.35c.09-.25.19-.51.28-.8.09-.29.23-.52.33-.68.03-.05.06-.09.09-.15.06-.23.13-.52.2-.82.04-.16.09-.32.14-.48.03-.09.06-.18.08-.27v-.05c-.05-.23-.11-.59-.04-1,.04-.22.12-.44.21-.66.03-.07.06-.14.08-.21.16-.73.87-1.23,1.61-1.09.74.14,1.23.83,1.1,1.57-.05.3-.15.56-.23.74-.01.04-.03.07-.04.11,0,.02,0,.04.01.06.04.23.11.59.02.99-.05.22-.11.43-.17.63-.03.1-.06.2-.09.3-.08.33-.15.65-.23.94-.1.36-.27.64-.38.82-.03.04-.05.08-.07.12-.09.29-.2.59-.31.89l-.1.29c-.08.23-.16.45-.25.66,0-.01,0,.03,0,.08-.03.23-.08.57-.27.92-.14.26-.3.46-.43.62-.05.06-.1.12-.14.19-.05.08-.08.17-.12.25-.09.2-.18.4-.3.59-.17.27-.37.46-.51.6-.04.04-.08.08-.12.12,0,.01-.02.07-.04.13-.08.22-.16.44-.28.66-.07.13-.14.26-.21.4-.06.13-.13.26-.2.39-.14.26-.31.45-.43.6-.04.05-.09.09-.12.15-.09.18-.22.37-.35.55-.04.06-.09.12-.12.18-.05.09-.09.18-.13.27-.07.16-.14.32-.22.47l-.02.09c-.05.21-.11.54-.32.87-.05.08-.09.16-.14.25-.11.19-.22.38-.34.56-.22.32-.49.51-.67.64-.03.03-.07.05-.1.08,0,0-.04.07-.09.14-.14.2-.28.4-.44.58-.17.18-.37.34-.57.49-.06.05-.13.09-.19.15-.24.21-.48.39-.74.57-.13.09-.19.14-.26.2-.18.15-.41.33-.71.49-.32.17-.63.24-.86.29-.07.02-.14.03-.2.05-.3.11-.65.23-1.06.32-.37.08-.73.13-1.11.15-.08,0-.15.02-.23.03-.17.03-.4.06-.65.06ZM78.13,112.78h.02s0,0-.02,0ZM86.47,110.86h0s0,0,0,0ZM86.88,110.17s0,0,0,0c0,0,0,0,0,0ZM92.49,98.28h0s0,0,0,0ZM75.8,98.03s0,0,0,0c0,0,0,0,0,0Z"/>
      <path class="cls-5" d="M125.99,116.18c-.66,0-1.2-.55-1.2-1.21,0-.26.05-.48.09-.66.02-.09.04-.19.04-.24,0-.16.01-.33.02-.5,0-.13.02-.27.02-.41,0-.07-.02-.14-.03-.21-.04-.22-.07-.45-.07-.69,0-.1,0-.2-.02-.3-.02-.2-.03-.4-.03-.6,0-.33.1-.6.17-.8.02-.05.04-.1.05-.15,0-.05-.01-.16-.02-.27-.01-.19-.02-.38-.02-.57-.01.02-.02-.03-.04-.08-.06-.2-.14-.48-.13-.82,0-.16,0-.31.02-.48l.02-.42c0-.36.12-.66.2-.85,0-.01.01-.03.02-.04,0-.01,0-.03-.01-.04-.06-.2-.16-.5-.15-.86,0-.28.07-.53.12-.71.02-.06.04-.12.04-.19,0-.08-.01-.17-.02-.26-.02-.21-.05-.42-.04-.63,0-.2.04-.41.07-.61.02-.09.04-.19.04-.28l.03-.89c0-.1,0-.21-.02-.31-.02-.2-.03-.4-.03-.59l.02-.89c0-.08-.02-.15-.03-.23-.04-.22-.06-.45-.06-.67,0-.18.02-.36.04-.54.01-.12.03-.23.03-.35,0-.29.07-.54.12-.72.02-.06.04-.12.04-.18,0-.09,0-.19-.02-.29-.02-.2-.03-.4-.03-.6,0-.09-.01-.19-.02-.28-.02-.21-.04-.41-.03-.62,0-.29.07-.54.12-.72.02-.06.04-.12.04-.19,0-.03-.02-.09-.04-.15-.04-.19-.1-.45-.09-.75s.08-.55.13-.74c.02-.06.04-.11.04-.17,0-.16.02-.34.04-.52.01-.12.03-.24.03-.36,0-.03-.02-.09-.04-.15-.04-.19-.1-.45-.09-.75,0-.2.04-.41.07-.62.02-.09.04-.19.04-.28,0-.12,0-.23,0-.35,0-.18-.02-.37-.01-.55,0-.12,0-.24-.01-.35-.01-.18-.02-.36-.01-.54,0-.28.06-.51.11-.69.02-.07.04-.14.04-.21,0-.09-.01-.18-.03-.27-.03-.21-.05-.42-.04-.63,0-.23.05-.46.1-.68.02-.07.04-.14.04-.21,0-.13,0-.26,0-.39,0-.17,0-.34,0-.5,0-.2.03-.4.06-.59.01-.1.03-.2.04-.3,0-.08-.02-.16-.03-.24-.04-.22-.06-.44-.06-.66,0-.14,0-.29,0-.43,0-.15,0-.31,0-.46,0-.17.01-.33.02-.49,0-.14.02-.27.02-.41,0-.11-.01-.21-.02-.31-.02-.2-.04-.4-.03-.59,0-.34.1-.62.17-.82.02-.05.03-.09.04-.14,0-.11,0-.28.02-.44,0-.13.02-.26.02-.38,0,.05-.02.01-.04-.04-.07-.2-.18-.5-.17-.87,0-.19.02-.38.04-.57.01-.11.03-.22.03-.33,0-.28.06-.53.1-.71.01-.07.03-.13.04-.19,0-.17,0-.34.02-.51,0-.13.01-.25.01-.37,0-.02-.03-.08-.05-.13-.06-.19-.14-.44-.14-.75v-.41c0-.17,0-.31,0-.42-.01-.23,0-.46.03-.68,0-.09.02-.17.02-.26l-.03-.93s-.03-.15-.04-.23c-.05-.19-.1-.42-.1-.7,0-.36.09-.66.15-.86.01-.05.03-.09.04-.14,0-.08-.02-.22-.02-.34-.01-.19-.03-.37-.02-.53,0-.18,0-.25,0-.3-.02-.16-.04-.33-.01-.66.05-.66.64-1.14,1.29-1.1.66.05,1.15.63,1.1,1.29,0,.05,0,.08,0,.1.02.16.05.32.03.74,0,.08,0,.17.01.27.01.19.03.4.03.62,0,.3-.08.55-.14.74-.02.06-.04.11-.05.17,0,0,.02.07.04.13.04.19.11.44.11.74l.02.9c0,.19-.01.39-.03.6-.01.1-.03.2-.02.3,0,.14,0,.33,0,.55v.38c0-.06.01-.01.03.03.06.2.16.51.16.88,0,.15,0,.31-.02.47,0,.14-.01.28-.02.43,0,.26-.05.49-.09.67-.02.08-.04.19-.04.23,0,.18-.02.36-.04.54,0,.09-.02.19-.03.29,0,.03.02.05.03.08.07.21.19.52.18.9,0,.16-.01.33-.03.5,0,.13-.02.27-.02.4,0,.33-.1.6-.17.8-.02.05-.04.1-.05.15,0,.04.02.14.03.24.02.2.04.41.03.61,0,.16-.01.32-.02.49,0,.13-.02.27-.02.41v.4c0,.16,0,.33,0,.5,0,.08.02.15.03.23.04.22.06.45.06.67,0,.19-.03.39-.06.59-.01.1-.03.21-.04.31,0,.12,0,.25,0,.37,0,.17,0,.35,0,.53,0,.26-.06.49-.1.68-.02.07-.04.15-.04.22,0,.08.01.17.03.26.03.21.05.43.04.64,0,.27-.06.5-.11.69-.02.07-.04.14-.04.21,0,.11,0,.22.01.34.01.19.02.37.01.56,0,.12,0,.24,0,.36,0,.18.02.36.01.54,0,.21-.04.41-.07.61-.02.1-.04.19-.04.29,0,.04.02.1.04.15.04.19.1.45.09.75,0,.18-.02.36-.04.54-.01.12-.03.24-.03.36,0,.3-.08.56-.13.74-.02.06-.04.11-.04.17,0,.02.02.08.04.14.04.19.1.45.09.75,0,.29-.07.54-.12.72-.02.06-.04.12-.04.19,0,.09.01.18.02.27.02.21.04.41.03.61,0,.1,0,.2.02.3.02.2.03.4.03.59,0,.29-.07.54-.12.72-.02.06-.04.12-.04.18,0,.17-.02.36-.04.54-.01.11-.03.23-.03.34,0,.07.02.15.03.23.04.22.06.45.06.66l-.02.89c0,.11,0,.21.02.32.02.19.03.39.03.58l-.03.89c0,.21-.04.42-.07.62-.02.09-.04.18-.04.27,0,.09.01.18.02.28.03.21.05.42.04.62,0,.29-.07.54-.12.72-.02.06-.04.12-.04.18,0-.05.02,0,.04.05.07.21.16.49.15.84,0,.37-.13.67-.2.86-.01.03-.03.06-.04.1l-.03.82s.02.05.04.1c.06.2.13.47.13.79,0,.12,0,.24.01.35.01.18.02.36.02.54,0,.34-.1.62-.17.82-.02.05-.03.09-.04.14,0,.04.02.16.03.27.02.19.03.37.03.55,0,.09.02.17.03.26.04.22.06.43.06.63,0,.19-.01.37-.03.54,0,.12-.02.24-.02.36,0,.29-.06.54-.1.73-.01.06-.03.12-.03.17,0,.66-.54,1.19-1.2,1.19Z"/>
    </g>
  </g>
</svg>